{
.appVersion = "895";
copyright = "Copyright 2016 Jeremy Tribby. SIL OFL License v1.1.";
date = "2016-07-12 00:27:02 +0000";
designer = "Jeremy Tribby";
designerURL = "http://tribby.com/";
familyName = Barlow;
featurePrefixes = (
{
automatic = 1;
code = "languagesystem DFLT dflt;\012";
name = Languagesystems;
}
);
features = (
{
automatic = 1;
code = "sub hyphen hyphen by hyphen_hyphen.liga;\012";
name = liga;
}
);
fontMaster = (
{
alignmentZones = (
"{800, 16}",
"{700, 10}",
"{500, 6}",
"{0, -10}",
"{-200, -12}"
);
ascender = 800;
capHeight = 700;
customParameters = (
{
name = paramArea;
value = "488";
},
{
name = paramDepth;
value = "16";
},
{
name = paramOver;
value = "0";
}
);
descender = -200;
horizontalStems = (
22,
22
);
id = "262880E7-CFE1-4BDA-902E-E24798F3240A";
userData = {
GSCornerRadius = 8;
GSOffsetHorizontal = 11;
GSOffsetMakeStroke = 1;
GSOffsetVertical = 10;
noodleExtremesAndInflections = 1;
noodleRemoveOverlap = 1;
noodleThickness = "22.0";
};
verticalStems = (
21,
21
);
visible = 1;
weight = Light;
weightValue = 23;
xHeight = 500;
},
{
alignmentZones = (
"{800, 16}",
"{700, 11}",
"{500, 9}",
"{0, -11}",
"{-200, -10}"
);
ascender = 800;
capHeight = 700;
customParameters = (
{
name = paramArea;
value = "200";
},
{
name = paramDepth;
value = "20";
},
{
name = paramOver;
value = "0";
}
);
descender = -200;
horizontalStems = (
198,
208
);
id = "4F25946F-63AC-42D6-8D55-01CF6A99025B";
userData = {
GSCornerRadius = 12;
GSOffsetHorizontal = 104;
GSOffsetMakeStroke = 1;
GSOffsetVertical = 102;
noodleExtremesAndInflections = 1;
noodleRemoveOverlap = 1;
noodleThickness = "50.0";
};
verticalStems = (
202,
168
);
visible = 1;
weight = Bold;
weightValue = 202;
xHeight = 500;
}
);
glyphs = (
{
color = 1;
glyphname = A;
lastChange = "2016-10-18 11:13:32 +0000";
layers = (
{
layerId = "262880E7-CFE1-4BDA-902E-E24798F3240A";
paths = (
{
closed = 1;
nodes = (
"49 0 LINE",
"207 656 LINE",
"365 0 LINE",
"387 0 LINE",
"218 700 LINE",
"196 700 LINE",
"27 0 LINE"
);
},
{
closed = 1;
nodes = (
"330 145 LINE",
"330 166 LINE",
"83 166 LINE",
"83 145 LINE"
);
}
);
width = 414;
},
{
layerId = "4F25946F-63AC-42D6-8D55-01CF6A99025B";
paths = (
{
closed = 1;
nodes = (
"183 0 LINE",
"286 450 LINE",
"389 0 LINE",
"597 0 LINE",
"390 700 LINE",
"182 700 LINE",
"-25 0 LINE"
);
},
{
closed = 1;
nodes = (
"436 87 LINE",
"436 240 LINE",
"136 240 LINE",
"136 87 LINE"
);
}
);
width = 572;
},
{
associatedMasterId = "262880E7-CFE1-4BDA-902E-E24798F3240A";
layerId = "09B97E43-C149-48A2-81D6-63259EF6020F";
name = "DemiBold{120,100}";
paths = (
{
closed = 1;
nodes = (
"137 0 LINE",
"254 529 LINE",
"371 0 LINE",
"491 0 LINE",
"314 700 LINE",
"194 700 LINE",
"17 0 LINE"
);
},
{
closed = 1;
nodes = (
"391 106 LINE",
"391 212 LINE",
"116 212 LINE",
"116 106 LINE"
);
}
);
width = 508;
}
);
unicode = 0041;
},
{
color = 1;
glyphname = B;
lastChange = "2016-10-18 11:13:33 +0000";
layers = (
{
layerId = "262880E7-CFE1-4BDA-902E-E24798F3240A";
paths = (
{
closed = 1;
nodes = (
"268 351 LINE SMOOTH",
"383 351 OFFCURVE",
"454 415 OFFCURVE",
"454 523 CURVE SMOOTH",
"454 631 OFFCURVE",
"383 700 OFFCURVE",
"268 700 CURVE SMOOTH",
"122 700 LINE",
"122 351 LINE"
);
},
{
closed = 1;
nodes = (
"268 0 LINE SMOOTH",
"383 0 OFFCURVE",
"454 71 OFFCURVE",
"454 186 CURVE SMOOTH",
"454 301 OFFCURVE",
"383 372 OFFCURVE",
"268 372 CURVE SMOOTH",
"122 372 LINE",
"122 0 LINE"
);
},
{
closed = 1;
nodes = (
"144 351 LINE",
"268 351 LINE SMOOTH",
"370 351 OFFCURVE",
"432 288 OFFCURVE",
"432 186 CURVE SMOOTH",
"432 84 OFFCURVE",
"370 22 OFFCURVE",
"268 22 CURVE SMOOTH",
"144 22 LINE"
);
},
{
closed = 1;
nodes = (
"144 679 LINE",
"268 679 LINE SMOOTH",
"370 679 OFFCURVE",
"432 618 OFFCURVE",
"432 523 CURVE SMOOTH",
"432 428 OFFCURVE",
"370 372 OFFCURVE",
"268 372 CURVE SMOOTH",
"144 372 LINE"
);
}
);
width = 548;
},
{
layerId = "4F25946F-63AC-42D6-8D55-01CF6A99025B";
paths = (
{
closed = 1;
nodes = (
"303 312 LINE SMOOTH",
"449 312 OFFCURVE",
"547 388 OFFCURVE",
"547 502 CURVE SMOOTH",
"547 621 OFFCURVE",
"447 700 OFFCURVE",
"298 700 CURVE",
"50 700 LINE",
"50 312 LINE"
);
},
{
closed = 1;
nodes = (
"327 0 LINE SMOOTH",
"472 0 OFFCURVE",
"568 82 OFFCURVE",
"568 205 CURVE SMOOTH",
"568 331 OFFCURVE",
"462 415 OFFCURVE",
"302 415 CURVE",
"50 415 LINE",
"50 0 LINE"
);
},
{
closed = 1;
nodes = (
"243 276 LINE",
"308 276 LINE SMOOTH",
"339 276 OFFCURVE",
"359 259 OFFCURVE",
"359 233 CURVE SMOOTH",
"359 206 OFFCURVE",
"338 188 OFFCURVE",
"307 188 CURVE SMOOTH",
"243 188 LINE"
);
},
{
closed = 1;
nodes = (
"243 515 LINE",
"302 515 LINE",
"331 515 OFFCURVE",
"351 497 OFFCURVE",
"351 470 CURVE SMOOTH",
"351 444 OFFCURVE",
"331 427 OFFCURVE",
"302 427 CURVE",
"243 427 LINE"
);
}
);
width = 577;
}
);
unicode = 0042;
},
{
color = 1;
glyphname = C;
lastChange = "2016-10-18 11:13:32 +0000";
layers = (
{
layerId = "262880E7-CFE1-4BDA-902E-E24798F3240A";
paths = (
{
closed = 1;
nodes = (
"372 -9 OFFCURVE",
"434 50 OFFCURVE",
"434 150 CURVE SMOOTH",
"434 152 LINE",
"412 152 LINE",
"412 150 LINE SMOOTH",
"412 64 OFFCURVE",
"360 11 OFFCURVE",
"273 11 CURVE SMOOTH",
"186 11 OFFCURVE",
"134 64 OFFCURVE",
"134 150 CURVE SMOOTH",
"134 550 LINE SMOOTH",
"134 637 OFFCURVE",
"188 690 OFFCURVE",
"273 690 CURVE SMOOTH",
"358 690 OFFCURVE",
"412 637 OFFCURVE",
"412 550 CURVE SMOOTH",
"412 548 LINE",
"434 548 LINE",
"434 550 LINE SMOOTH",
"434 650 OFFCURVE",
"372 709 OFFCURVE",
"273 709 CURVE SMOOTH",
"174 709 OFFCURVE",
"112 650 OFFCURVE",
"112 550 CURVE SMOOTH",
"112 150 LINE SMOOTH",
"112 50 OFFCURVE",
"174 -9 OFFCURVE",
"273 -9 CURVE SMOOTH"
);
}
);
width = 506;
},
{
layerId = "4F25946F-63AC-42D6-8D55-01CF6A99025B";
paths = (
{
closed = 1;
nodes = (
"434 -10 OFFCURVE",
"535 67 OFFCURVE",
"535 183 CURVE SMOOTH",
"535 278 LINE",
"327 278 LINE",
"327 233 LINE SMOOTH",
"327 206 OFFCURVE",
"309 188 OFFCURVE",
"283 188 CURVE SMOOTH",
"257 188 OFFCURVE",
"239 206 OFFCURVE",
"239 233 CURVE SMOOTH",
"239 467 LINE SMOOTH",
"239 494 OFFCURVE",
"257 512 OFFCURVE",
"283 512 CURVE SMOOTH",
"309 512 OFFCURVE",
"327 494 OFFCURVE",
"327 467 CURVE SMOOTH",
"327 422 LINE",
"535 422 LINE",
"535 517 LINE SMOOTH",
"535 633 OFFCURVE",
"434 710 OFFCURVE",
"283 710 CURVE SMOOTH",
"132 710 OFFCURVE",
"31 633 OFFCURVE",
"31 517 CURVE SMOOTH",
"31 183 LINE SMOOTH",
"31 67 OFFCURVE",
"132 -10 OFFCURVE",
"283 -10 CURVE SMOOTH"
);
}
);
width = 554;
}
);
unicode = 0043;
},
{
color = 1;
glyphname = D;
lastChange = "2016-10-18 11:13:33 +0000";
layers = (
{
layerId = "262880E7-CFE1-4BDA-902E-E24798F3240A";
paths = (
{
closed = 1;
nodes = (
"273 0 LINE SMOOTH",
"376 0 OFFCURVE",
"444 65 OFFCURVE",
"444 180 CURVE SMOOTH",
"444 520 LINE SMOOTH",
"444 635 OFFCURVE",
"376 700 OFFCURVE",
"273 700 CURVE SMOOTH",
"122 700 LINE",
"122 0 LINE"
);
},
{
closed = 1;
nodes = (
"144 679 LINE",
"273 679 LINE SMOOTH",
"362 679 OFFCURVE",
"422 622 OFFCURVE",
"422 520 CURVE SMOOTH",
"422 180 LINE SMOOTH",
"422 79 OFFCURVE",
"362 22 OFFCURVE",
"273 22 CURVE SMOOTH",
"144 22 LINE"
);
}
);
width = 552;
},
{
layerId = "4F25946F-63AC-42D6-8D55-01CF6A99025B";
paths = (
{
closed = 1;
nodes = (
"337 0 LINE SMOOTH",
"468 0 OFFCURVE",
"549 85 OFFCURVE",
"549 223 CURVE SMOOTH",
"549 477 LINE SMOOTH",
"549 615 OFFCURVE",
"468 700 OFFCURVE",
"337 700 CURVE SMOOTH",
"50 700 LINE",
"50 0 LINE"
);
},
{
closed = 1;
nodes = (
"258 526 LINE",
"293 526 LINE SMOOTH",
"320 526 OFFCURVE",
"337 505 OFFCURVE",
"337 471 CURVE SMOOTH",
"337 229 LINE SMOOTH",
"337 195 OFFCURVE",
"320 174 OFFCURVE",
"293 174 CURVE SMOOTH",
"258 174 LINE"
);
}
);
width = 577;
},
{
associatedMasterId = "262880E7-CFE1-4BDA-902E-E24798F3240A";
layerId = "5FA87B53-3B99-492D-B797-6707203108CA";
name = "DemiBold{119,100}";
paths = (
{
closed = 1;
nodes = (
"302 0 LINE SMOOTH",
"420 0 OFFCURVE",
"495 76 OFFCURVE",
"495 203 CURVE SMOOTH",
"495 497 LINE SMOOTH",
"495 624 OFFCURVE",
"420 700 OFFCURVE",
"302 700 CURVE SMOOTH",
"78 700 LINE",
"78 0 LINE"
);
},
{
closed = 1;
nodes = (
"200 581 LINE",
"279 581 LINE SMOOTH",
"334 581 OFFCURVE",
"371 543 OFFCURVE",
"371 478 CURVE SMOOTH",
"371 226 LINE SMOOTH",
"371 161 OFFCURVE",
"334 124 OFFCURVE",
"279 124 CURVE SMOOTH",
"200 124 LINE"
);
}
);
width = 559;
}
);
unicode = 0044;
},
{
color = 1;
glyphname = E;
lastChange = "2016-10-18 11:13:32 +0000";
layers = (
{
layerId = "262880E7-CFE1-4BDA-902E-E24798F3240A";
paths = (
{
closed = 1;
nodes = (
"443 0 LINE",
"443 21 LINE",
"144 21 LINE",
"144 679 LINE",
"443 679 LINE",
"443 700 LINE",
"122 700 LINE",
"122 0 LINE"
);
},
{
closed = 1;
nodes = (
"346 340 LINE",
"346 361 LINE",
"133 361 LINE",
"133 340 LINE"
);
}
);
width = 496;
},
{
layerId = "4F25946F-63AC-42D6-8D55-01CF6A99025B";
paths = (
{
closed = 1;
nodes = (
"512 0 LINE",
"512 198 LINE",
"258 198 LINE",
"258 502 LINE",
"512 502 LINE",
"512 700 LINE",
"50 700 LINE",
"50 0 LINE"
);
},
{
closed = 1;
nodes = (
"410 261 LINE",
"410 439 LINE",
"172 439 LINE",
"172 261 LINE"
);
}
);
width = 528;
},
{
associatedMasterId = "262880E7-CFE1-4BDA-902E-E24798F3240A";
layerId = "DE3E8A9A-5DAD-493A-9E98-F56387BAB1C1";
name = "DemiBold{119,100}";
paths = (
{
closed = 1;
nodes = (
"494 0 LINE",
"494 111 LINE",
"229 111 LINE",
"229 589 LINE",
"494 589 LINE",
"494 700 LINE",
"105 700 LINE",
"105 0 LINE"
);
},
{
closed = 1;
nodes = (
"394 300 LINE",
"394 400 LINE",
"177 400 LINE",
"177 300 LINE"
);
}
);
width = 559;
}
);
unicode = 0045;
},
{
color = 1;
glyphname = F;
lastChange = "2016-10-18 11:13:33 +0000";
layers = (
{
layerId = "262880E7-CFE1-4BDA-902E-E24798F3240A";
paths = (
{
closed = 1;
nodes = (
"144 0 LINE",
"144 679 LINE",
"443 679 LINE",
"443 700 LINE",
"122 700 LINE",
"122 0 LINE"
);
},
{
closed = 1;
nodes = (
"346 340 LINE",
"346 361 LINE",
"133 361 LINE",
"133 340 LINE"
);
}
);
width = 491;
},
{
layerId = "4F25946F-63AC-42D6-8D55-01CF6A99025B";
paths = (
{
closed = 1;
nodes = (
"258 0 LINE",
"258 502 LINE",
"526 502 LINE",
"526 700 LINE",
"50 700 LINE",
"50 0 LINE"
);
},
{
closed = 1;
nodes = (
"422 261 LINE",
"422 439 LINE",
"171 439 LINE",
"171 261 LINE"
);
}
);
width = 509;
},
{
associatedMasterId = "262880E7-CFE1-4BDA-902E-E24798F3240A";
layerId = "E70C252C-4698-4A26-900C-4F3FD049D2BA";
name = "DemiBold{119,100}";
paths = (
{
closed = 1;
nodes = (
"232 0 LINE",
"232 589 LINE",
"493 589 LINE",
"493 700 LINE",
"106 700 LINE",
"106 0 LINE"
);
},
{
closed = 1;
nodes = (
"393 300 LINE",
"393 400 LINE",
"180 400 LINE",
"180 300 LINE"
);
}
);
width = 544;
}
);
unicode = 0046;
},
{
color = 1;
glyphname = G;
lastChange = "2016-10-18 11:13:33 +0000";
layers = (
{
layerId = "262880E7-CFE1-4BDA-902E-E24798F3240A";
paths = (
{
closed = 1;
nodes = (
"372 -9 OFFCURVE",
"434 51 OFFCURVE",
"434 150 CURVE",
"434 361 LINE",
"273 361 LINE",
"273 340 LINE",
"412 340 LINE",
"412 150 LINE",
"412 63 OFFCURVE",
"360 11 OFFCURVE",
"273 11 CURVE SMOOTH",
"186 11 OFFCURVE",
"134 63 OFFCURVE",
"134 150 CURVE",
"134 550 LINE",
"134 637 OFFCURVE",
"186 690 OFFCURVE",
"273 690 CURVE SMOOTH",
"360 690 OFFCURVE",
"412 637 OFFCURVE",
"412 550 CURVE",
"434 550 LINE",
"434 649 OFFCURVE",
"372 709 OFFCURVE",
"273 709 CURVE SMOOTH",
"174 709 OFFCURVE",
"112 649 OFFCURVE",
"112 550 CURVE",
"112 150 LINE",
"112 51 OFFCURVE",
"174 -9 OFFCURVE",
"273 -9 CURVE SMOOTH"
);
}
);
width = 530;
},
{
layerId = "4F25946F-63AC-42D6-8D55-01CF6A99025B";
paths = (
{
closed = 1;
nodes = (
"428 -10 OFFCURVE",
"529 88 OFFCURVE",
"529 234 CURVE SMOOTH",
"529 403 LINE",
"277 403 LINE",
"277 287 LINE",
"321 287 LINE",
"321 244 LINE SMOOTH",
"321 210 OFFCURVE",
"303 188 OFFCURVE",
"277 188 CURVE SMOOTH",
"251 188 OFFCURVE",
"233 210 OFFCURVE",
"233 244 CURVE SMOOTH",
"233 456 LINE SMOOTH",
"233 490 OFFCURVE",
"251 512 OFFCURVE",
"277 512 CURVE SMOOTH",
"303 512 OFFCURVE",
"321 490 OFFCURVE",
"321 456 CURVE",
"529 456 LINE",
"529 602 OFFCURVE",
"428 710 OFFCURVE",
"277 710 CURVE SMOOTH",
"126 710 OFFCURVE",
"25 612 OFFCURVE",
"25 466 CURVE SMOOTH",
"25 234 LINE SMOOTH",
"25 88 OFFCURVE",
"126 -10 OFFCURVE",
"277 -10 CURVE SMOOTH"
);
}
);
width = 551;
},
{
associatedMasterId = "262880E7-CFE1-4BDA-902E-E24798F3240A";
layerId = "4BB53C67-4989-441E-8A0D-7E4F5FC64094";
name = "Medium {91, 100}";
paths = (
{
closed = 1;
nodes = (
"426 -9 OFFCURVE",
"504 65 OFFCURVE",
"504 182 CURVE",
"504 376 LINE",
"307 376 LINE",
"307 290 LINE",
"410 290 LINE",
"410 182 LINE",
"410 115 OFFCURVE",
"370 74 OFFCURVE",
"307 74 CURVE SMOOTH",
"243 74 OFFCURVE",
"204 115 OFFCURVE",
"204 182 CURVE",
"204 518 LINE",
"204 585 OFFCURVE",
"243 626 OFFCURVE",
"307 626 CURVE SMOOTH",
"370 626 OFFCURVE",
"410 585 OFFCURVE",
"410 518 CURVE",
"504 518 LINE",
"504 635 OFFCURVE",
"426 709 OFFCURVE",
"307 709 CURVE SMOOTH",
"187 709 OFFCURVE",
"110 635 OFFCURVE",
"110 518 CURVE",
"110 182 LINE",
"110 65 OFFCURVE",
"187 -9 OFFCURVE",
"307 -9 CURVE SMOOTH"
);
}
);
width = 602;
}
);
unicode = 0047;
},
{
color = 1;
glyphname = H;
lastChange = "2016-10-18 11:13:33 +0000";
layers = (
{
layerId = "262880E7-CFE1-4BDA-902E-E24798F3240A";
paths = (
{
closed = 1;
nodes = (
"444 0 LINE",
"444 700 LINE",
"422 700 LINE",
"422 0 LINE"
);
},
{
closed = 1;
nodes = (
"144 0 LINE",
"144 700 LINE",
"122 700 LINE",
"122 0 LINE"
);
},
{
closed = 1;
nodes = (
"427 340 LINE",
"427 361 LINE",
"139 361 LINE",
"139 340 LINE"
);
}
);
width = 566;
},
{
layerId = "4F25946F-63AC-42D6-8D55-01CF6A99025B";
paths = (
{
closed = 1;
nodes = (
"558 0 LINE",
"558 700 LINE",
"348 700 LINE",
"348 0 LINE"
);
},
{
closed = 1;
nodes = (
"260 0 LINE",
"260 700 LINE",
"50 700 LINE",
"50 0 LINE"
);
},
{
closed = 1;
nodes = (
"364 248 LINE",
"364 446 LINE",
"244 446 LINE",
"244 248 LINE"
);
}
);
width = 608;
}
);
unicode = 0048;
},
{
color = 1;
glyphname = I;
lastChange = "2016-10-18 11:13:33 +0000";
layers = (
{
layerId = "262880E7-CFE1-4BDA-902E-E24798F3240A";
paths = (
{
closed = 1;
nodes = (
"144 0 LINE",
"144 700 LINE",
"122 700 LINE",
"122 0 LINE"
);
}
);
width = 266;
},
{
layerId = "4F25946F-63AC-42D6-8D55-01CF6A99025B";
paths = (
{
closed = 1;
nodes = (
"252 0 LINE",
"252 700 LINE",
"50 700 LINE",
"50 0 LINE"
);
}
);
width = 302;
}
);
unicode = 0049;
},
{
color = 1;
glyphname = J;
lastChange = "2016-10-18 11:13:33 +0000";
layers = (
{
layerId = "262880E7-CFE1-4BDA-902E-E24798F3240A";
paths = (
{
closed = 1;
nodes = (
"319 -11 OFFCURVE",
"379 50 OFFCURVE",
"379 150 CURVE SMOOTH",
"379 700 LINE",
"357 700 LINE",
"357 150 LINE",
"357 64 OFFCURVE",
"305 11 OFFCURVE",
"221 11 CURVE SMOOTH",
"137 11 OFFCURVE",
"85 64 OFFCURVE",
"85 150 CURVE SMOOTH",
"85 195 LINE",
"63 195 LINE",
"63 150 LINE SMOOTH",
"63 50 OFFCURVE",
"123 -11 OFFCURVE",
"221 -11 CURVE SMOOTH"
);
}
);
width = 497;
},
{
layerId = "4F25946F-63AC-42D6-8D55-01CF6A99025B";
paths = (
{
closed = 1;
nodes = (
"379 -10 OFFCURVE",
"478 88 OFFCURVE",
"478 235 CURVE",
"473 702 LINE",
"265 700 LINE",
"270 243 LINE",
"270 210 OFFCURVE",
"254 188 OFFCURVE",
"231 188 CURVE SMOOTH",
"208 188 OFFCURVE",
"192 210 OFFCURVE",
"192 244 CURVE SMOOTH",
"192 290 LINE",
"-16 290 LINE",
"-16 234 LINE SMOOTH",
"-16 88 OFFCURVE",
"83 -10 OFFCURVE",
"231 -10 CURVE SMOOTH"
);
}
);
width = 514;
}
);
unicode = 004A;
},
{
color = 1;
glyphname = K;
lastChange = "2016-10-18 11:13:33 +0000";
layers = (
{
layerId = "262880E7-CFE1-4BDA-902E-E24798F3240A";
paths = (
{
closed = 1;
nodes = (
"454 0 LINE",
"152 350 LINE",
"454 700 LINE",
"432 700 LINE",
"130 350 LINE",
"432 0 LINE"
);
},
{
closed = 1;
nodes = (
"144 0 LINE",
"144 700 LINE",
"122 700 LINE",
"122 0 LINE"
);
}
);
width = 507;
},
{
layerId = "4F25946F-63AC-42D6-8D55-01CF6A99025B";
paths = (
{
closed = 1;
nodes = (
"584 0 LINE",
"383 350 LINE",
"581 700 LINE",
"365 700 LINE",
"183 350 LINE",
"368 0 LINE"
);
},
{
closed = 1;
nodes = (
"258 0 LINE",
"258 700 LINE",
"50 700 LINE",
"50 0 LINE"
);
}
);
width = 559;
},
{
associatedMasterId = "262880E7-CFE1-4BDA-902E-E24798F3240A";
layerId = "52A147BE-A087-4D72-9A5D-908B44B10E17";
name = "Medium {91, 100}";
paths = (
{
closed = 1;
nodes = (
"524 0 LINE",
"260 350 LINE",
"522 700 LINE",
"407 700 LINE",
"142 350 LINE",
"407 0 LINE"
);
},
{
closed = 1;
nodes = (
"218 0 LINE",
"218 700 LINE",
"124 700 LINE",
"124 0 LINE"
);
}
);
width = 589;
},
{
associatedMasterId = "4F25946F-63AC-42D6-8D55-01CF6A99025B";
layerId = "57219196-2667-4E9B-A894-DD00D1913D76";
name = "Bold Oct 15 16, 02:53";
paths = (
{
closed = 1;
nodes = (
"590 0 LINE",
"413 350 LINE",
"585 700 LINE",
"335 700 LINE",
"193 350 LINE",
"335 0 LINE"
);
},
{
closed = 1;
nodes = (
"265 0 LINE",
"265 700 LINE",
"57 700 LINE",
"57 0 LINE"
);
}
);
width = 593;
}
);
unicode = 004B;
},
{
color = 1;
glyphname = L;
lastChange = "2016-10-18 11:13:33 +0000";
layers = (
{
layerId = "262880E7-CFE1-4BDA-902E-E24798F3240A";
paths = (
{
closed = 1;
nodes = (
"433 0 LINE",
"433 21 LINE",
"144 21 LINE",
"144 700 LINE",
"122 700 LINE",
"122 0 LINE"
);
}
);
width = 481;
},
{
layerId = "4F25946F-63AC-42D6-8D55-01CF6A99025B";
paths = (
{
closed = 1;
nodes = (
"507 0 LINE",
"507 192 LINE",
"258 192 LINE",
"258 700 LINE",
"50 700 LINE",
"50 0 LINE"
);
}
);
width = 489;
}
);
unicode = 004C;
},
{
color = 1;
glyphname = M;
lastChange = "2016-10-18 11:13:32 +0000";
layers = (
{
layerId = "262880E7-CFE1-4BDA-902E-E24798F3240A";
paths = (
{
closed = 1;
nodes = (
"144 0 LINE",
"144 653 LINE",
"301 324 LINE",
"458 653 LINE",
"458 0 LINE",
"480 0 LINE",
"480 700 LINE",
"458 700 LINE",
"301 372 LINE",
"144 700 LINE",
"122 700 LINE",
"122 0 LINE"
);
}
);
width = 602;
},
{
layerId = "4F25946F-63AC-42D6-8D55-01CF6A99025B";
paths = (
{
closed = 1;
nodes = (
"262 0 LINE",
"262 406 LINE",
"352 274 LINE",
"442 406 LINE",
"442 0 LINE",
"654 0 LINE",
"654 698 LINE",
"451 698 LINE",
"352 542 LINE",
"250 702 LINE",
"50 702 LINE",
"50 0 LINE"
);
}
);
width = 704;
},
{
associatedMasterId = "4F25946F-63AC-42D6-8D55-01CF6A99025B";
layerId = "BF6C6FBC-ABCF-4728-B32F-BE7F013B92F9";
name = "Medium {91, 100}";
paths = (
{
closed = 1;
nodes = (
"179 0 LINE",
"181 520 LINE",
"312 265 LINE",
"445 520 LINE",
"445 0 LINE",
"538 0 LINE",
"538 699 LINE",
"447 699 LINE",
"312 437 LINE",
"176 701 LINE",
"87 701 LINE",
"87 0 LINE"
);
}
);
width = 625;
}
);
unicode = 004D;
},
{
color = 1;
glyphname = N;
lastChange = "2016-10-18 11:13:33 +0000";
layers = (
{
layerId = "262880E7-CFE1-4BDA-902E-E24798F3240A";
paths = (
{
closed = 1;
nodes = (
"144 0 LINE",
"144 648 LINE",
"422 0 LINE",
"444 0 LINE",
"444 700 LINE",
"422 700 LINE",
"422 52 LINE",
"144 700 LINE",
"122 700 LINE",
"122 0 LINE"
);
}
);
width = 566;
},
{
layerId = "4F25946F-63AC-42D6-8D55-01CF6A99025B";
paths = (
{
closed = 1;
nodes = (
"258 -5 LINE",
"261 284 LINE",
"411 -5 LINE",
"585 -5 LINE",
"585 695 LINE",
"377 695 LINE",
"377 389 LINE",
"234 695 LINE",
"50 695 LINE",
"50 -5 LINE"
);
}
);
width = 635;
},
{
associatedMasterId = "4F25946F-63AC-42D6-8D55-01CF6A99025B";
layerId = "0B1885C1-B30B-43AF-BA88-F41889FEAFD7";
name = "DemiBold{119,100}";
paths = (
{
closed = 1;
nodes = (
"192 -3 LINE",
"194 423 LINE",
"403 -3 LINE",
"507 -3 LINE",
"507 697 LINE",
"385 697 LINE",
"385 263 LINE",
"179 697 LINE",
"70 697 LINE",
"70 -3 LINE"
);
}
);
width = 582;
}
);
unicode = 004E;
},
{
color = 1;
glyphname = O;
lastChange = "2016-10-18 11:13:32 +0000";
layers = (
{
layerId = "262880E7-CFE1-4BDA-902E-E24798F3240A";
paths = (
{
closed = 1;
nodes = (
"369 -9 OFFCURVE",
"441 60 OFFCURVE",
"441 150 CURVE SMOOTH",
"441 550 LINE SMOOTH",
"441 640 OFFCURVE",
"369 709 OFFCURVE",
"276 709 CURVE SMOOTH",
"183 709 OFFCURVE",
"111 640 OFFCURVE",
"111 550 CURVE SMOOTH",
"111 150 LINE SMOOTH",
"111 60 OFFCURVE",
"183 -9 OFFCURVE",
"276 -9 CURVE SMOOTH"
);
},
{
closed = 1;
nodes = (
"193 12 OFFCURVE",
"133 74 OFFCURVE",
"133 152 CURVE SMOOTH",
"133 548 LINE SMOOTH",
"133 627 OFFCURVE",
"195 688 OFFCURVE",
"276 688 CURVE SMOOTH",
"357 688 OFFCURVE",
"419 627 OFFCURVE",
"419 548 CURVE SMOOTH",
"419 152 LINE SMOOTH",
"419 74 OFFCURVE",
"359 12 OFFCURVE",
"276 12 CURVE SMOOTH"
);
}
);
width = 552;
},
{
layerId = "4F25946F-63AC-42D6-8D55-01CF6A99025B";
paths = (
{
closed = 1;
nodes = (
"441 -10 OFFCURVE",
"545 87 OFFCURVE",
"545 233 CURVE SMOOTH",
"545 467 LINE SMOOTH",
"545 613 OFFCURVE",
"441 710 OFFCURVE",
"285 710 CURVE SMOOTH",
"129 710 OFFCURVE",
"25 613 OFFCURVE",
"25 467 CURVE SMOOTH",
"25 233 LINE SMOOTH",
"25 87 OFFCURVE",
"129 -10 OFFCURVE",
"285 -10 CURVE SMOOTH"
);
},
{
closed = 1;
nodes = (
"256 188 OFFCURVE",
"237 208 OFFCURVE",
"237 237 CURVE SMOOTH",
"237 463 LINE SMOOTH",
"237 492 OFFCURVE",
"256 512 OFFCURVE",
"285 512 CURVE SMOOTH",
"314 512 OFFCURVE",
"333 492 OFFCURVE",
"333 463 CURVE SMOOTH",
"333 237 LINE SMOOTH",
"333 208 OFFCURVE",
"314 188 OFFCURVE",
"285 188 CURVE SMOOTH"
);
}
);
width = 569;
}
);
unicode = 004F;
},
{
color = 1;
glyphname = P;
lastChange = "2016-10-18 11:13:32 +0000";
layers = (
{
layerId = "262880E7-CFE1-4BDA-902E-E24798F3240A";
paths = (
{
closed = 1;
nodes = (
"144 0 LINE",
"144 679 LINE",
"268 679 LINE SMOOTH",
"368 679 OFFCURVE",
"429 616 OFFCURVE",
"429 513 CURVE SMOOTH",
"429 409 OFFCURVE",
"368 346 OFFCURVE",
"268 346 CURVE SMOOTH",
"139 346 LINE",
"139 325 LINE",
"268 325 LINE SMOOTH",
"381 325 OFFCURVE",
"451 397 OFFCURVE",
"451 512 CURVE SMOOTH",
"451 629 OFFCURVE",
"381 700 OFFCURVE",
"268 700 CURVE SMOOTH",
"122 700 LINE",
"122 0 LINE"
);
}
);
width = 520;
},
{
layerId = "4F25946F-63AC-42D6-8D55-01CF6A99025B";
paths = (
{
closed = 1;
nodes = (
"262 0 LINE",
"262 512 LINE",
"291 512 LINE SMOOTH",
"320 512 OFFCURVE",
"340 492 OFFCURVE",
"340 462 CURVE SMOOTH",
"340 432 OFFCURVE",
"320 412 OFFCURVE",
"291 412 CURVE SMOOTH",
"246 412 LINE",
"246 233 LINE",
"330 233 LINE SMOOTH",
"463 233 OFFCURVE",
"552 326 OFFCURVE",
"552 465 CURVE SMOOTH",
"552 606 OFFCURVE",
"460 700 OFFCURVE",
"321 700 CURVE SMOOTH",
"50 700 LINE",
"50 0 LINE"
);
}
);
width = 544;
}
);
unicode = 0050;
},
{
color = 1;
glyphname = Q;
lastChange = "2016-10-18 11:13:32 +0000";
layers = (
{
layerId = "262880E7-CFE1-4BDA-902E-E24798F3240A";
paths = (
{
closed = 1;
nodes = (
"361 -11 OFFCURVE",
"433 60 OFFCURVE",
"433 150 CURVE SMOOTH",
"433 550 LINE SMOOTH",
"433 640 OFFCURVE",
"361 711 OFFCURVE",
"272 711 CURVE SMOOTH",
"183 711 OFFCURVE",
"111 640 OFFCURVE",
"111 550 CURVE SMOOTH",
"111 150 LINE SMOOTH",
"111 60 OFFCURVE",
"183 -11 OFFCURVE",
"272 -11 CURVE SMOOTH"
);
},
{
closed = 1;
nodes = (
"411 -51 LINE",
"214 16 LINE",
"214 0 LINE",
"411 -72 LINE"
);
},
{
closed = 1;
nodes = (
"193 11 OFFCURVE",
"133 72 OFFCURVE",
"133 150 CURVE SMOOTH",
"133 550 LINE SMOOTH",
"133 629 OFFCURVE",
"195 690 OFFCURVE",
"272 690 CURVE SMOOTH",
"349 690 OFFCURVE",
"411 629 OFFCURVE",
"411 550 CURVE SMOOTH",
"411 150 LINE SMOOTH",
"411 72 OFFCURVE",
"351 11 OFFCURVE",
"272 11 CURVE SMOOTH"
);
}
);
width = 544;
},
{
layerId = "4F25946F-63AC-42D6-8D55-01CF6A99025B";
paths = (
{
closed = 1;
nodes = (
"435 -10 OFFCURVE",
"537 87 OFFCURVE",
"537 233 CURVE SMOOTH",
"537 467 LINE SMOOTH",
"537 613 OFFCURVE",
"435 710 OFFCURVE",
"281 710 CURVE SMOOTH",
"127 710 OFFCURVE",
"25 613 OFFCURVE",
"25 467 CURVE SMOOTH",
"25 233 LINE SMOOTH",
"25 87 OFFCURVE",
"127 -10 OFFCURVE",
"281 -10 CURVE SMOOTH"
);
},
{
closed = 1;
nodes = (
"553 113 LINE",
"229 118 LINE",
"229 -6 LINE",
"545 -43 LINE"
);
},
{
closed = 1;
nodes = (
"255 188 OFFCURVE",
"237 206 OFFCURVE",
"237 233 CURVE SMOOTH",
"237 467 LINE SMOOTH",
"237 494 OFFCURVE",
"255 512 OFFCURVE",
"281 512 CURVE SMOOTH",
"307 512 OFFCURVE",
"325 494 OFFCURVE",
"325 467 CURVE SMOOTH",
"325 233 LINE SMOOTH",
"325 206 OFFCURVE",
"307 188 OFFCURVE",
"281 188 CURVE SMOOTH"
);
}
);
width = 577;
}
);
unicode = 0051;
},
{
color = 1;
glyphname = R;
lastChange = "2016-10-18 11:13:32 +0000";
layers = (
{
layerId = "262880E7-CFE1-4BDA-902E-E24798F3240A";
paths = (
{
closed = 1;
nodes = (
"144 0 LINE",
"144 679 LINE",
"271 679 LINE SMOOTH",
"371 679 OFFCURVE",
"432 616 OFFCURVE",
"432 512 CURVE SMOOTH",
"432 408 OFFCURVE",
"371 344 OFFCURVE",
"271 344 CURVE SMOOTH",
"139 344 LINE",
"139 323 LINE",
"271 323 LINE SMOOTH",
"384 323 OFFCURVE",
"454 395 OFFCURVE",
"454 511 CURVE SMOOTH",
"454 628 OFFCURVE",
"384 700 OFFCURVE",
"271 700 CURVE SMOOTH",
"122 700 LINE",
"122 0 LINE"
);
},
{
closed = 1;
nodes = (
"412 0 LINE",
"293 340 LINE",
"275 332 LINE",
"390 0 LINE"
);
}
);
width = 526;
},
{
layerId = "4F25946F-63AC-42D6-8D55-01CF6A99025B";
paths = (
{
closed = 1;
nodes = (
"258 0 LINE",
"258 502 LINE",
"326 502 LINE SMOOTH",
"355 502 OFFCURVE",
"375 482 OFFCURVE",
"375 452 CURVE SMOOTH",
"375 422 OFFCURVE",
"355 402 OFFCURVE",
"326 402 CURVE SMOOTH",
"242 402 LINE",
"242 210 LINE",
"322 210 LINE SMOOTH",
"479 210 OFFCURVE",
"583 314 OFFCURVE",
"583 469 CURVE",
"583 608 OFFCURVE",
"479 700 OFFCURVE",
"322 700 CURVE SMOOTH",
"50 700 LINE",
"50 0 LINE"
);
},
{
closed = 1;
nodes = (
"580 0 LINE",
"427 320 LINE",
"241 320 LINE",
"372 0 LINE"
);
}
);
width = 588;
}
);
unicode = 0052;
},
{
color = 1;
glyphname = S;
lastChange = "2016-10-18 11:13:32 +0000";
layers = (
{
layerId = "262880E7-CFE1-4BDA-902E-E24798F3240A";
paths = (
{
closed = 1;
nodes = (
"348 -9 OFFCURVE",
"410 50 OFFCURVE",
"410 149 CURVE SMOOTH",
"410 255 OFFCURVE",
"338 306 OFFCURVE",
"255 361 CURVE SMOOTH",
"172 416 OFFCURVE",
"110 459 OFFCURVE",
"110 552 CURVE SMOOTH",
"110 636 OFFCURVE",
"162 690 OFFCURVE",
"246 690 CURVE SMOOTH",
"330 690 OFFCURVE",
"382 637 OFFCURVE",
"382 550 CURVE SMOOTH",
"382 500 LINE",
"404 500 LINE",
"404 550 LINE SMOOTH",
"404 650 OFFCURVE",
"344 709 OFFCURVE",
"246 709 CURVE SMOOTH",
"148 709 OFFCURVE",
"88 649 OFFCURVE",
"88 553 CURVE SMOOTH",
"88 446 OFFCURVE",
"163 394 OFFCURVE",
"241 342 CURVE SMOOTH",
"318 291 OFFCURVE",
"388 244 OFFCURVE",
"388 148 CURVE SMOOTH",
"388 63 OFFCURVE",
"334 11 OFFCURVE",
"247 11 CURVE SMOOTH",
"160 11 OFFCURVE",
"110 64 OFFCURVE",
"110 150 CURVE SMOOTH",
"110 210 LINE",
"90 210 LINE",
"90 150 LINE SMOOTH",
"90 50 OFFCURVE",
"147 -9 OFFCURVE",
"248 -9 CURVE SMOOTH"
);
}
);
width = 496;
},
{
layerId = "4F25946F-63AC-42D6-8D55-01CF6A99025B";
paths = (
{
closed = 1;
nodes = (
"424 -10 OFFCURVE",
"518 74 OFFCURVE",
"518 200 CURVE SMOOTH",
"518 312 OFFCURVE",
"444 381 OFFCURVE",
"331 425 CURVE SMOOTH",
"285 443 OFFCURVE",
"232 456 OFFCURVE",
"232 489 CURVE SMOOTH",
"232 503 OFFCURVE",
"242 518 OFFCURVE",
"266 518 CURVE SMOOTH",
"292 518 OFFCURVE",
"307 501 OFFCURVE",
"307 479 CURVE SMOOTH",
"307 464 LINE",
"519 474 LINE",
"519 479 LINE SMOOTH",
"519 617 OFFCURVE",
"412 710 OFFCURVE",
"260 710 CURVE SMOOTH",
"113 710 OFFCURVE",
"17 624 OFFCURVE",
"17 498 CURVE SMOOTH",
"17 389 OFFCURVE",
"90 318 OFFCURVE",
"204 275 CURVE SMOOTH",
"246 259 OFFCURVE",
"302 245 OFFCURVE",
"302 214 CURVE SMOOTH",
"302 201 OFFCURVE",
"293 182 OFFCURVE",
"267 182 CURVE SMOOTH",
"243 182 OFFCURVE",
"228 199 OFFCURVE",
"228 231 CURVE SMOOTH",
"228 236 LINE",
"5 226 LINE",
"5 221 LINE SMOOTH",
"5 83 OFFCURVE",
"111 -10 OFFCURVE",
"271 -10 CURVE SMOOTH"
);
}
);
width = 530;
}
);
unicode = 0053;
},
{
color = 1;
glyphname = T;
lastChange = "2016-10-18 11:13:33 +0000";
layers = (
{
layerId = "262880E7-CFE1-4BDA-902E-E24798F3240A";
paths = (
{
closed = 1;
nodes = (
"216 0 LINE",
"216 689 LINE",
"194 689 LINE",
"194 0 LINE"
);
},
{
closed = 1;
nodes = (
"370 679 LINE",
"370 700 LINE",
"48 700 LINE",
"48 679 LINE"
);
}
);
width = 418;
},
{
layerId = "4F25946F-63AC-42D6-8D55-01CF6A99025B";
paths = (
{
closed = 1;
nodes = (
"341 0 LINE",
"341 606 LINE",
"133 606 LINE",
"133 0 LINE"
);
},
{
closed = 1;
nodes = (
"491 502 LINE",
"491 700 LINE",
"-17 700 LINE",
"-17 502 LINE"
);
}
);
width = 474;
}
);
unicode = 0054;
},
{
color = 1;
glyphname = U;
lastChange = "2016-10-18 11:13:33 +0000";
layers = (
{
layerId = "262880E7-CFE1-4BDA-902E-E24798F3240A";
paths = (
{
closed = 1;
nodes = (
"377 -9 OFFCURVE",
"439 50 OFFCURVE",
"439 150 CURVE SMOOTH",
"439 700 LINE",
"417 700 LINE",
"417 150 LINE SMOOTH",
"417 64 OFFCURVE",
"365 11 OFFCURVE",
"278 11 CURVE SMOOTH",
"191 11 OFFCURVE",
"139 64 OFFCURVE",
"139 150 CURVE SMOOTH",
"139 700 LINE",
"117 700 LINE",
"117 150 LINE SMOOTH",
"117 50 OFFCURVE",
"179 -9 OFFCURVE",
"278 -9 CURVE SMOOTH"
);
}
);
width = 556;
},
{
layerId = "4F25946F-63AC-42D6-8D55-01CF6A99025B";
paths = (
{
closed = 1;
nodes = (
"442 -6 OFFCURVE",
"543 92 OFFCURVE",
"543 234 CURVE SMOOTH",
"543 700 LINE",
"335 700 LINE",
"335 244 LINE SMOOTH",
"335 210 OFFCURVE",
"317 188 OFFCURVE",
"291 188 CURVE SMOOTH",
"265 188 OFFCURVE",
"247 210 OFFCURVE",
"247 244 CURVE SMOOTH",
"247 700 LINE",
"39 696 LINE",
"39 230 LINE SMOOTH",
"39 82 OFFCURVE",
"140 -14 OFFCURVE",
"291 -10 CURVE SMOOTH"
);
}
);
width = 581;
}
);
unicode = 0055;
},
{
color = 1;
glyphname = V;
lastChange = "2016-10-18 11:13:32 +0000";
layers = (
{
layerId = "262880E7-CFE1-4BDA-902E-E24798F3240A";
paths = (
{
closed = 1;
nodes = (
"249 0 LINE",
"414 700 LINE",
"392 700 LINE",
"238 40 LINE",
"84 700 LINE",
"62 700 LINE",
"227 0 LINE"
);
}
);
width = 476;
},
{
layerId = "4F25946F-63AC-42D6-8D55-01CF6A99025B";
paths = (
{
closed = 1;
nodes = (
"360 0 LINE",
"532 700 LINE",
"324 700 LINE",
"256 300 LINE",
"188 700 LINE",
"-20 700 LINE",
"152 0 LINE"
);
}
);
width = 512;
}
);
unicode = 0056;
},
{
color = 1;
glyphname = W;
lastChange = "2016-10-18 11:13:33 +0000";
layers = (
{
layerId = "262880E7-CFE1-4BDA-902E-E24798F3240A";
paths = (
{
closed = 1;
nodes = (
"215 0 LINE",
"329 648 LINE",
"443 0 LINE",
"465 0 LINE",
"590 700 LINE",
"568 700 LINE",
"454 52 LINE",
"340 700 LINE",
"318 700 LINE",
"204 52 LINE",
"90 700 LINE",
"68 700 LINE",
"193 0 LINE"
);
}
);
width = 658;
},
{
layerId = "4F25946F-63AC-42D6-8D55-01CF6A99025B";
paths = (
{
closed = 1;
nodes = (
"351 1 LINE",
"387 307 LINE",
"423 1 LINE",
"653 1 LINE",
"807 700 LINE",
"591 700 LINE",
"538 363 LINE",
"489 699 LINE",
"297 699 LINE",
"248 363 LINE",
"195 700 LINE",
"-17 700 LINE",
"139 1 LINE"
);
}
);
width = 791;
}
);
unicode = 0057;
},
{
color = 1;
glyphname = X;
lastChange = "2016-10-18 11:13:33 +0000";
layers = (
{
layerId = "262880E7-CFE1-4BDA-902E-E24798F3240A";
paths = (
{
closed = 1;
nodes = (
"373 700 LINE",
"229 374 LINE",
"85 700 LINE",
"63 700 LINE",
"218 350 LINE",
"63 0 LINE",
"85 0 LINE",
"229 325 LINE",
"373 0 LINE",
"395 0 LINE",
"241 350 LINE",
"395 700 LINE"
);
}
);
width = 458;
},
{
layerId = "4F25946F-63AC-42D6-8D55-01CF6A99025B";
paths = (
{
closed = 1;
nodes = (
"359 700 LINE",
"277 530 LINE",
"195 700 LINE",
"-23 700 LINE",
"168 350 LINE",
"-23 0 LINE",
"195 0 LINE",
"277 170 LINE",
"359 0 LINE",
"577 0 LINE",
"386 350 LINE",
"577 700 LINE"
);
}
);
width = 554;
},
{
associatedMasterId = "4F25946F-63AC-42D6-8D55-01CF6A99025B";
layerId = "A81EC77E-A514-41C1-A690-EF61EA7402F1";
name = "Bold Oct 15 16, 02:50";
paths = (
{
closed = 1;
nodes = (
"4 700 LINE",
"242 700 LINE",
"582 0 LINE",
"344 0 LINE"
);
},
{
closed = 1;
nodes = (
"344 700 LINE",
"582 700 LINE",
"242 0 LINE",
"4 0 LINE"
);
}
);
width = 586;
},
{
associatedMasterId = "262880E7-CFE1-4BDA-902E-E24798F3240A";
layerId = "F2B2385B-1C24-46F1-AB29-8D87B4EEE0C2";
name = "DEMIBOLD{119,100}";
paths = (
{
closed = 1;
nodes = (
"370 700 LINE",
"256 444 LINE",
"142 700 LINE",
"23 700 LINE",
"191 350 LINE",
"23 0 LINE",
"142 0 LINE",
"256 255 LINE",
"370 0 LINE",
"489 0 LINE",
"322 350 LINE",
"489 700 LINE"
);
}
);
width = 536;
},
{
associatedMasterId = "262880E7-CFE1-4BDA-902E-E24798F3240A";
layerId = "077702AC-624F-4016-8C7C-9CDBE6837B88";
name = "Light Oct 16 16, 21:49";
paths = (
{
closed = 1;
nodes = (
"441 700 LINE",
"298 376 LINE",
"155 700 LINE",
"132 700 LINE",
"287 350 LINE",
"132 0 LINE",
"155 0 LINE",
"298 324 LINE",
"441 0 LINE",
"464 0 LINE",
"310 350 LINE",
"464 700 LINE"
);
}
);
width = 596;
}
);
unicode = 0058;
},
{
color = 1;
glyphname = Y;
lastChange = "2016-10-18 11:13:34 +0000";
layers = (
{
layerId = "262880E7-CFE1-4BDA-902E-E24798F3240A";
paths = (
{
closed = 1;
nodes = (
"387 697 LINE",
"365 697 LINE",
"220 360 LINE",
"75 697 LINE",
"53 697 LINE",
"220 318 LINE"
);
},
{
closed = 1;
nodes = (
"231 0 LINE",
"231 350 LINE",
"209 350 LINE",
"209 0 LINE"
);
}
);
width = 440;
},
{
layerId = "4F25946F-63AC-42D6-8D55-01CF6A99025B";
paths = (
{
closed = 1;
nodes = (
"572 700 LINE",
"356 700 LINE",
"279 479 LINE",
"181 700 LINE",
"-35 700 LINE",
"278 52 LINE"
);
},
{
closed = 1;
nodes = (
"382 0 LINE",
"382 350 LINE",
"174 350 LINE",
"174 0 LINE"
);
}
);
width = 538;
}
);
unicode = 0059;
},
{
color = 1;
glyphname = Z;
lastChange = "2016-10-18 11:13:33 +0000";
layers = (
{
layerId = "262880E7-CFE1-4BDA-902E-E24798F3240A";
paths = (
{
closed = 1;
nodes = (
"367 0 LINE",
"367 21 LINE",
"81 21 LINE",
"376 679 LINE",
"376 700 LINE",
"68 700 LINE",
"68 679 LINE",
"355 679 LINE",
"59 21 LINE",
"59 0 LINE"
);
}
);
width = 436;
},
{
layerId = "4F25946F-63AC-42D6-8D55-01CF6A99025B";
paths = (
{
closed = 1;
nodes = (
"499 0 LINE",
"499 198 LINE",
"241 198 LINE",
"499 502 LINE",
"499 700 LINE",
"19 700 LINE",
"19 502 LINE",
"277 502 LINE",
"20 198 LINE",
"20 0 LINE"
);
}
);
width = 519;
},
{
associatedMasterId = "4F25946F-63AC-42D6-8D55-01CF6A99025B";
layerId = "8571AD0C-8F04-4BAF-8376-8975FEBCF70C";
name = "Demibold{119,100}";
paths = (
{
closed = 1;
nodes = (
"433 0 LINE",
"433 111 LINE",
"137 111 LINE",
"439 589 LINE",
"439 700 LINE",
"27 700 LINE",
"27 589 LINE",
"324 589 LINE",
"22 111 LINE",
"22 0 LINE"
);
}
);
width = 464;
}
);
unicode = 005A;
},
{
color = 1;
glyphname = a;
lastChange = "2016-10-18 11:13:34 +0000";
layers = (
{
layerId = "262880E7-CFE1-4BDA-902E-E24798F3240A";
paths = (
{
closed = 1;
nodes = (
"338 -5 OFFCURVE",
"397 56 OFFCURVE",
"397 156 CURVE SMOOTH",
"397 344 LINE SMOOTH",
"397 444 OFFCURVE",
"338 505 OFFCURVE",
"241 505 CURVE SMOOTH",
"142 505 OFFCURVE",
"82 444 OFFCURVE",
"82 344 CURVE SMOOTH",
"82 156 LINE SMOOTH",
"82 56 OFFCURVE",
"142 -5 OFFCURVE",
"241 -5 CURVE SMOOTH"
);
},
{
closed = 1;
nodes = (
"159 16 OFFCURVE",
"104 72 OFFCURVE",
"104 156 CURVE SMOOTH",
"104 344 LINE SMOOTH",
"104 428 OFFCURVE",
"159 484 OFFCURVE",
"241 484 CURVE SMOOTH",
"323 484 OFFCURVE",
"378 428 OFFCURVE",
"378 344 CURVE SMOOTH",
"378 156 LINE SMOOTH",
"378 72 OFFCURVE",
"323 16 OFFCURVE",
"241 16 CURVE SMOOTH"
);
},
{
closed = 1;
nodes = (
"400 0 LINE",
"400 500 LINE",
"378 500 LINE",
"378 0 LINE"
);
}
);
width = 498;
},
{
layerId = "4F25946F-63AC-42D6-8D55-01CF6A99025B";
paths = (
{
closed = 1;
nodes = (
"339 -5 OFFCURVE",
"384 108 OFFCURVE",
"384 208 CURVE SMOOTH",
"384 298 LINE",
"379 395 OFFCURVE",
"339 505 OFFCURVE",
"193 505 CURVE SMOOTH",
"78 505 OFFCURVE",
"24 437 OFFCURVE",
"24 346 CURVE SMOOTH",
"24 152 LINE SMOOTH",
"24 61 OFFCURVE",
"78 -5 OFFCURVE",
"191 -5 CURVE SMOOTH"
);
},
{
closed = 1;
nodes = (
"250 163 OFFCURVE",
"232 181 OFFCURVE",
"232 208 CURVE SMOOTH",
"232 294 LINE SMOOTH",
"232 321 OFFCURVE",
"250 339 OFFCURVE",
"276 339 CURVE SMOOTH",
"302 339 OFFCURVE",
"319 321 OFFCURVE",
"319 294 CURVE SMOOTH",
"319 208 LINE SMOOTH",
"319 181 OFFCURVE",
"302 163 OFFCURVE",
"276 163 CURVE SMOOTH"
);
},
{
closed = 1;
nodes = (
"527 0 LINE",
"527 500 LINE",
"319 500 LINE",
"319 0 LINE"
);
}
);
width = 567;
},
{
associatedMasterId = "4F25946F-63AC-42D6-8D55-01CF6A99025B";
layerId = "47FC566B-2B97-4943-A9EB-638501BAD42D";
name = "DemiBold{119,100}";
paths = (
{
closed = 1;
nodes = (
"356 -3 OFFCURVE",
"417 66 OFFCURVE",
"417 244 CURVE SMOOTH",
"417 255 LINE SMOOTH",
"417 420 OFFCURVE",
"353 504 OFFCURVE",
"224 504 CURVE SMOOTH",
"116 504 OFFCURVE",
"42 445 OFFCURVE",
"42 348 CURVE SMOOTH",
"42 153 LINE SMOOTH",
"42 56 OFFCURVE",
"109 -3 OFFCURVE",
"228 -3 CURVE SMOOTH"
);
},
{
closed = 1;
nodes = (
"199 94 OFFCURVE",
"164 130 OFFCURVE",
"164 183 CURVE SMOOTH",
"164 318 LINE SMOOTH",
"164 371 OFFCURVE",
"199 407 OFFCURVE",
"252 407 CURVE SMOOTH",
"304 407 OFFCURVE",
"339 371 OFFCURVE",
"339 318 CURVE SMOOTH",
"339 183 LINE SMOOTH",
"339 130 OFFCURVE",
"304 94 OFFCURVE",
"252 94 CURVE SMOOTH"
);
},
{
closed = 1;
nodes = (
"460 0 LINE",
"460 500 LINE",
"339 500 LINE",
"339 0 LINE"
);
}
);
width = 516;
visible = 1;
}
);
unicode = 0061;
},
{
color = 1;
glyphname = b;
lastChange = "2016-10-18 11:13:34 +0000";
layers = (
{
layerId = "262880E7-CFE1-4BDA-902E-E24798F3240A";
paths = (
{
closed = 1;
nodes = (
"120 0 LINE",
"120 700 LINE",
"98 700 LINE",
"98 0 LINE"
);
},
{
closed = 1;
nodes = (
"355 -5 OFFCURVE",
"416 56 OFFCURVE",
"416 156 CURVE SMOOTH",
"416 344 LINE SMOOTH",
"416 444 OFFCURVE",
"355 505 OFFCURVE",
"257 505 CURVE SMOOTH",
"157 505 OFFCURVE",
"101 444 OFFCURVE",
"101 344 CURVE SMOOTH",
"101 156 LINE SMOOTH",
"101 56 OFFCURVE",
"157 -5 OFFCURVE",
"257 -5 CURVE SMOOTH"
);
},
{
closed = 1;
nodes = (
"171 16 OFFCURVE",
"120 70 OFFCURVE",
"120 156 CURVE SMOOTH",
"120 344 LINE SMOOTH",
"120 431 OFFCURVE",
"171 484 OFFCURVE",
"257 484 CURVE SMOOTH",
"341 484 OFFCURVE",
"394 431 OFFCURVE",
"394 344 CURVE SMOOTH",
"394 156 LINE SMOOTH",
"394 70 OFFCURVE",
"341 16 OFFCURVE",
"257 16 CURVE SMOOTH"
);
}
);
width = 498;
},
{
layerId = "4F25946F-63AC-42D6-8D55-01CF6A99025B";
paths = (
{
closed = 1;
nodes = (
"247 0 LINE",
"247 700 LINE",
"40 700 LINE",
"40 0 LINE"
);
},
{
closed = 1;
nodes = (
"478 -5 OFFCURVE",
"541 64 OFFCURVE",
"541 155 CURVE SMOOTH",
"541 353 LINE SMOOTH",
"541 444 OFFCURVE",
"492 505 OFFCURVE",
"371 505 CURVE SMOOTH",
"213 505 OFFCURVE",
"186 399 OFFCURVE",
"182 301 CURVE",
"182 198 LINE SMOOTH",
"182 111 OFFCURVE",
"225 -5 OFFCURVE",
"369 -5 CURVE SMOOTH"
);
},
{
closed = 1;
nodes = (
"264 163 OFFCURVE",
"247 181 OFFCURVE",
"247 208 CURVE SMOOTH",
"247 294 LINE SMOOTH",
"247 321 OFFCURVE",
"264 339 OFFCURVE",
"290 339 CURVE SMOOTH",
"316 339 OFFCURVE",
"334 321 OFFCURVE",
"334 294 CURVE SMOOTH",
"334 208 LINE SMOOTH",
"334 181 OFFCURVE",
"316 163 OFFCURVE",
"290 163 CURVE SMOOTH"
);
}
);
width = 565;
},
{
associatedMasterId = "4F25946F-63AC-42D6-8D55-01CF6A99025B";
layerId = "C1792C53-241E-48FB-AF0D-246C75EB8055";
name = "Demibold{119,100}";
paths = (
{
closed = 1;
nodes = (
"179 0 LINE",
"179 700 LINE",
"60 700 LINE",
"60 0 LINE"
);
},
{
closed = 1;
nodes = (
"409 -3 OFFCURVE",
"473 56 OFFCURVE",
"473 153 CURVE SMOOTH",
"473 348 LINE SMOOTH",
"473 444 OFFCURVE",
"407 504 OFFCURVE",
"300 504 CURVE SMOOTH",
"175 504 OFFCURVE",
"101 421 OFFCURVE",
"101 255 CURVE SMOOTH",
"101 244 LINE SMOOTH",
"101 66 OFFCURVE",
"162 -3 OFFCURVE",
"290 -3 CURVE SMOOTH"
);
},
{
closed = 1;
nodes = (
"214 94 OFFCURVE",
"179 130 OFFCURVE",
"179 183 CURVE SMOOTH",
"179 318 LINE SMOOTH",
"179 371 OFFCURVE",
"214 407 OFFCURVE",
"266 407 CURVE SMOOTH",
"319 407 OFFCURVE",
"354 371 OFFCURVE",
"354 318 CURVE",
"354 183 LINE SMOOTH",
"354 130 OFFCURVE",
"319 94 OFFCURVE",
"266 94 CURVE SMOOTH"
);
}
);
width = 518;
}
);
unicode = 0062;
},
{
color = 1;
glyphname = c;
lastChange = "2016-10-18 11:13:33 +0000";
layers = (
{
layerId = "262880E7-CFE1-4BDA-902E-E24798F3240A";
paths = (
{
closed = 1;
nodes = (
"342 -5 OFFCURVE",
"404 54 OFFCURVE",
"404 154 CURVE SMOOTH",
"404 157 LINE",
"382 157 LINE",
"382 154 LINE SMOOTH",
"382 68 OFFCURVE",
"330 15 OFFCURVE",
"243 15 CURVE SMOOTH",
"156 15 OFFCURVE",
"104 68 OFFCURVE",
"104 154 CURVE SMOOTH",
"104 346 LINE SMOOTH",
"104 433 OFFCURVE",
"158 486 OFFCURVE",
"243 486 CURVE SMOOTH",
"328 486 OFFCURVE",
"382 433 OFFCURVE",
"382 346 CURVE SMOOTH",
"382 344 LINE",
"404 344 LINE",
"404 346 LINE SMOOTH",
"404 446 OFFCURVE",
"342 505 OFFCURVE",
"243 505 CURVE SMOOTH",
"144 505 OFFCURVE",
"82 446 OFFCURVE",
"82 346 CURVE SMOOTH",
"82 154 LINE SMOOTH",
"82 54 OFFCURVE",
"144 -5 OFFCURVE",
"243 -5 CURVE SMOOTH"
);
}
);
width = 465;
},
{
layerId = "4F25946F-63AC-42D6-8D55-01CF6A99025B";
paths = (
{
closed = 1;
nodes = (
"413 -7 OFFCURVE",
"515 71 OFFCURVE",
"523 186 CURVE",
"523 228 LINE",
"312 228 LINE",
"312 207 LINE SMOOTH",
"312 181 OFFCURVE",
"294 164 OFFCURVE",
"268 164 CURVE SMOOTH",
"242 164 OFFCURVE",
"225 181 OFFCURVE",
"225 207 CURVE",
"225 297 LINE",
"225 323 OFFCURVE",
"242 340 OFFCURVE",
"268 340 CURVE SMOOTH",
"294 340 OFFCURVE",
"312 323 OFFCURVE",
"312 297 CURVE",
"312 274 LINE",
"523 274 LINE",
"523 327 LINE",
"521 434 OFFCURVE",
"419 507 OFFCURVE",
"267 507 CURVE SMOOTH",
"115 507 OFFCURVE",
"13 434 OFFCURVE",
"13 327 CURVE SMOOTH",
"13 186 LINE SMOOTH",
"13 71 OFFCURVE",
"115 -7 OFFCURVE",
"264 -7 CURVE SMOOTH"
);
}
);
width = 533;
},
{
associatedMasterId = "4F25946F-63AC-42D6-8D55-01CF6A99025B";
layerId = "7B6958F8-F0D4-40F0-82E9-17D44A566858";
name = "DemiBold{119,100}";
paths = (
{
closed = 1;
nodes = (
"377 -4 OFFCURVE",
"461 64 OFFCURVE",
"465 172 CURVE SMOOTH",
"465 196 LINE",
"342 196 LINE",
"342 194 LINE SMOOTH",
"342 141 OFFCURVE",
"308 108 OFFCURVE",
"254 108 CURVE SMOOTH",
"199 108 OFFCURVE",
"166 141 OFFCURVE",
"166 194 CURVE SMOOTH",
"166 307 LINE SMOOTH",
"166 360 OFFCURVE",
"200 394 OFFCURVE",
"254 394 CURVE SMOOTH",
"307 394 OFFCURVE",
"342 360 OFFCURVE",
"342 307 CURVE SMOOTH",
"342 305 LINE",
"465 305 LINE",
"465 335 LINE SMOOTH",
"464 438 OFFCURVE",
"381 504 OFFCURVE",
"253 504 CURVE SMOOTH",
"126 504 OFFCURVE",
"42 438 OFFCURVE",
"42 335 CURVE SMOOTH",
"42 172 LINE SMOOTH",
"42 64 OFFCURVE",
"126 -4 OFFCURVE",
"251 -4 CURVE SMOOTH"
);
}
);
width = 496;
}
);
unicode = 0063;
},
{
color = 1;
glyphname = e;
lastChange = "2016-10-18 11:13:33 +0000";
layers = (
{
layerId = "262880E7-CFE1-4BDA-902E-E24798F3240A";
paths = (
{
closed = 1;
nodes = (
"342 -5 OFFCURVE",
"404 55 OFFCURVE",
"404 155 CURVE SMOOTH",
"404 159 LINE",
"382 159 LINE",
"382 155 LINE SMOOTH",
"382 69 OFFCURVE",
"330 16 OFFCURVE",
"243 16 CURVE SMOOTH",
"156 16 OFFCURVE",
"104 69 OFFCURVE",
"104 155 CURVE SMOOTH",
"104 344 LINE SMOOTH",
"104 431 OFFCURVE",
"158 484 OFFCURVE",
"243 484 CURVE SMOOTH",
"328 484 OFFCURVE",
"382 431 OFFCURVE",
"382 344 CURVE SMOOTH",
"382 261 LINE",
"99 261 LINE",
"99 240 LINE",
"404 240 LINE",
"404 344 LINE SMOOTH",
"404 444 OFFCURVE",
"342 505 OFFCURVE",
"243 505 CURVE SMOOTH",
"144 505 OFFCURVE",
"82 444 OFFCURVE",
"82 344 CURVE SMOOTH",
"82 155 LINE SMOOTH",
"82 55 OFFCURVE",
"144 -5 OFFCURVE",
"243 -5 CURVE SMOOTH"
);
}
);
width = 481;
},
{
layerId = "4F25946F-63AC-42D6-8D55-01CF6A99025B";
paths = (
{
closed = 1;
nodes = (
"413 -13 OFFCURVE",
"510 65 OFFCURVE",
"518 182 CURVE",
"518 197 LINE",
"310 197 LINE",
"310 194 LINE SMOOTH",
"310 171 OFFCURVE",
"293 155 OFFCURVE",
"268 155 CURVE SMOOTH",
"241 155 OFFCURVE",
"223 171 OFFCURVE",
"223 194 CURVE SMOOTH",
"223 295 LINE SMOOTH",
"223 322 OFFCURVE",
"241 340 OFFCURVE",
"268 340 CURVE SMOOTH",
"293 340 OFFCURVE",
"310 322 OFFCURVE",
"310 295 CURVE SMOOTH",
"310 279 LINE",
"212 279 LINE",
"212 226 LINE",
"518 226 LINE",
"518 327 LINE",
"516 437 OFFCURVE",
"419 513 OFFCURVE",
"267 513 CURVE SMOOTH",
"115 513 OFFCURVE",
"15 437 OFFCURVE",
"15 327 CURVE SMOOTH",
"15 182 LINE SMOOTH",
"15 64 OFFCURVE",
"114 -13 OFFCURVE",
"263 -13 CURVE SMOOTH"
);
}
);
width = 531;
},
{
associatedMasterId = "4F25946F-63AC-42D6-8D55-01CF6A99025B";
layerId = "A8631AE8-6F64-4109-B373-5711B024CF55";
name = "DemiBold {119,100}";
paths = (
{
closed = 1;
nodes = (
"385 -4 OFFCURVE",
"472 64 OFFCURVE",
"472 172 CURVE SMOOTH",
"472 185 LINE",
"349 185 LINE",
"349 185 LINE SMOOTH",
"349 132 OFFCURVE",
"315 99 OFFCURVE",
"261 99 CURVE SMOOTH",
"207 99 OFFCURVE",
"173 132 OFFCURVE",
"173 185 CURVE SMOOTH",
"173 316 LINE SMOOTH",
"173 369 OFFCURVE",
"208 403 OFFCURVE",
"261 403 CURVE SMOOTH",
"314 403 OFFCURVE",
"349 369 OFFCURVE",
"349 316 CURVE SMOOTH",
"349 298 LINE",
"165 298 LINE",
"165 215 LINE",
"472 215 LINE",
"472 335 LINE SMOOTH",
"472 438 OFFCURVE",
"388 504 OFFCURVE",
"260 504 CURVE SMOOTH",
"133 504 OFFCURVE",
"50 438 OFFCURVE",
"50 335 CURVE SMOOTH",
"50 172 LINE SMOOTH",
"50 64 OFFCURVE",
"133 -4 OFFCURVE",
"259 -4 CURVE SMOOTH"
);
}
);
width = 521;
visible = 1;
}
);
unicode = 0065;
},
{
color = 1;
glyphname = f;
lastChange = "2016-10-18 11:13:33 +0000";
layers = (
{
layerId = "262880E7-CFE1-4BDA-902E-E24798F3240A";
paths = (
{
closed = 1;
nodes = (
"126 0 LINE",
"126 550 LINE SMOOTH",
"126 637 OFFCURVE",
"179 689 OFFCURVE",
"265 689 CURVE",
"265 710 LINE",
"165 710 OFFCURVE",
"104 650 OFFCURVE",
"104 550 CURVE SMOOTH",
"104 0 LINE"
);
},
{
closed = 1;
nodes = (
"235 479 LINE",
"235 500 LINE",
"35 500 LINE",
"35 479 LINE"
);
}
);
width = 261;
},
{
layerId = "4F25946F-63AC-42D6-8D55-01CF6A99025B";
paths = (
{
closed = 1;
nodes = (
"243 8 LINE",
"243 525 LINE",
"243 545 OFFCURVE",
"265 551 OFFCURVE",
"287 551 CURVE",
"287 693 LINE",
"147 700 OFFCURVE",
"58 690 OFFCURVE",
"58 549 CURVE",
"58 8 LINE"
);
},
{
closed = 1;
nodes = (
"305 326 LINE",
"305 500 LINE",
"12 500 LINE",
"12 326 LINE"
);
}
);
width = 308;
}
);
unicode = 0066;
},
{
color = 1;
glyphname = g;
lastChange = "2016-10-18 11:13:33 +0000";
layers = (
{
layerId = "262880E7-CFE1-4BDA-902E-E24798F3240A";
paths = (
{
closed = 1;
nodes = (
"342 -5 OFFCURVE",
"398 56 OFFCURVE",
"398 156 CURVE SMOOTH",
"398 344 LINE SMOOTH",
"398 444 OFFCURVE",
"342 505 OFFCURVE",
"242 505 CURVE SMOOTH",
"144 505 OFFCURVE",
"83 444 OFFCURVE",
"83 344 CURVE SMOOTH",
"83 156 LINE SMOOTH",
"83 56 OFFCURVE",
"144 -5 OFFCURVE",
"242 -5 CURVE SMOOTH"
);
},
{
closed = 1;
nodes = (
"158 16 OFFCURVE",
"105 70 OFFCURVE",
"105 156 CURVE SMOOTH",
"105 344 LINE SMOOTH",
"105 431 OFFCURVE",
"158 484 OFFCURVE",
"242 484 CURVE SMOOTH",
"328 484 OFFCURVE",
"379 431 OFFCURVE",
"379 344 CURVE SMOOTH",
"379 156 LINE SMOOTH",
"379 70 OFFCURVE",
"328 16 OFFCURVE",
"242 16 CURVE SMOOTH"
);
},
{
closed = 1;
nodes = (
"328 -206 OFFCURVE",
"401 -140 OFFCURVE",
"401 0 CURVE SMOOTH",
"401 500 LINE",
"379 500 LINE",
"379 0 LINE SMOOTH",
"379 -126 OFFCURVE",
"313 -185 OFFCURVE",
"194 -181 CURVE",
"194 -202 LINE"
);
}
);
width = 499;
},
{
layerId = "4F25946F-63AC-42D6-8D55-01CF6A99025B";
paths = (
{
closed = 1;
nodes = (
"342 -5 OFFCURVE",
"384 109 OFFCURVE",
"384 208 CURVE SMOOTH",
"384 298 LINE",
"380 394 OFFCURVE",
"338 505 OFFCURVE",
"192 505 CURVE SMOOTH",
"77 505 OFFCURVE",
"25 437 OFFCURVE",
"25 346 CURVE SMOOTH",
"25 152 LINE SMOOTH",
"25 61 OFFCURVE",
"81 -5 OFFCURVE",
"194 -5 CURVE SMOOTH"
);
},
{
closed = 1;
nodes = (
"242 165 OFFCURVE",
"225 181 OFFCURVE",
"225 206 CURVE SMOOTH",
"225 298 LINE SMOOTH",
"225 323 OFFCURVE",
"242 339 OFFCURVE",
"268 339 CURVE SMOOTH",
"294 339 OFFCURVE",
"312 323 OFFCURVE",
"312 298 CURVE SMOOTH",
"312 206 LINE SMOOTH",
"312 181 OFFCURVE",
"294 165 OFFCURVE",
"268 165 CURVE SMOOTH"
);
},
{
closed = 1;
nodes = (
"457 -226 OFFCURVE",
"524 -115 OFFCURVE",
"524 34 CURVE SMOOTH",
"524 500 LINE",
"312 500 LINE",
"312 34 LINE SMOOTH",
"312 -14 OFFCURVE",
"295 -44 OFFCURVE",
"151 -36 CURVE",
"151 -207 LINE"
);
}
);
width = 564;
}
);
unicode = 0067;
},
{
color = 1;
glyphname = h;
lastChange = "2016-10-18 11:13:33 +0000";
layers = (
{
layerId = "262880E7-CFE1-4BDA-902E-E24798F3240A";
paths = (
{
closed = 1;
nodes = (
"420 0 LINE",
"420 346 LINE SMOOTH",
"420 444 OFFCURVE",
"359 504 OFFCURVE",
"263 504 CURVE SMOOTH",
"165 504 OFFCURVE",
"104 446 OFFCURVE",
"104 343 CURVE",
"120 343 LINE",
"120 430 OFFCURVE",
"175 483 OFFCURVE",
"263 483 CURVE SMOOTH",
"346 483 OFFCURVE",
"398 431 OFFCURVE",
"398 345 CURVE SMOOTH",
"398 0 LINE"
);
},
{
closed = 1;
nodes = (
"120 0 LINE",
"120 700 LINE",
"98 700 LINE",
"98 0 LINE"
);
}
);
width = 510;
},
{
layerId = "4F25946F-63AC-42D6-8D55-01CF6A99025B";
paths = (
{
closed = 1;
nodes = (
"543 0 LINE",
"543 350 LINE SMOOTH",
"543 441 OFFCURVE",
"491 505 OFFCURVE",
"375 505 CURVE SMOOTH",
"226 505 OFFCURVE",
"183 396 OFFCURVE",
"183 294 CURVE",
"248 294 LINE",
"248 321 OFFCURVE",
"265 339 OFFCURVE",
"291 339 CURVE SMOOTH",
"317 339 OFFCURVE",
"335 321 OFFCURVE",
"335 294 CURVE SMOOTH",
"335 0 LINE"
);
},
{
closed = 1;
nodes = (
"248 0 LINE",
"248 700 LINE",
"40 700 LINE",
"40 0 LINE"
);
}
);
width = 576;
},
{
associatedMasterId = "4F25946F-63AC-42D6-8D55-01CF6A99025B";
layerId = "6DA8EE20-322F-490D-912C-EA80E03ECB77";
name = "Medium {91, 100}";
paths = (
{
closed = 1;
nodes = (
"453 0 LINE",
"453 348 LINE SMOOTH",
"453 444 OFFCURVE",
"393 507 OFFCURVE",
"285 507 CURVE SMOOTH",
"172 507 OFFCURVE",
"111 437 OFFCURVE",
"111 326 CURVE",
"155 326 LINE",
"155 390 OFFCURVE",
"195 430 OFFCURVE",
"257 430 CURVE SMOOTH",
"320 430 OFFCURVE",
"360 390 OFFCURVE",
"360 326 CURVE SMOOTH",
"360 0 LINE"
);
},
{
closed = 1;
nodes = (
"155 0 LINE",
"155 700 LINE",
"62 700 LINE",
"62 0 LINE"
);
}
);
width = 508;
}
);
unicode = 0068;
},
{
color = 1;
glyphname = i;
lastChange = "2016-10-18 11:13:33 +0000";
layers = (
{
layerId = "262880E7-CFE1-4BDA-902E-E24798F3240A";
paths = (
{
closed = 1;
nodes = (
"120 0 LINE",
"120 500 LINE",
"98 500 LINE",
"98 0 LINE"
);
},
{
closed = 1;
nodes = (
"126 669 OFFCURVE",
"140 683 OFFCURVE",
"140 700 CURVE SMOOTH",
"140 716 OFFCURVE",
"126 730 OFFCURVE",
"109 730 CURVE SMOOTH",
"92 730 OFFCURVE",
"78 716 OFFCURVE",
"78 700 CURVE SMOOTH",
"78 683 OFFCURVE",
"92 669 OFFCURVE",
"109 669 CURVE SMOOTH"
);
}
);
width = 218;
},
{
layerId = "4F25946F-63AC-42D6-8D55-01CF6A99025B";
paths = (
{
closed = 1;
nodes = (
"248 0 LINE",
"248 500 LINE",
"40 500 LINE",
"40 0 LINE"
);
},
{
closed = 1;
nodes = (
"205 547 OFFCURVE",
"258 591 OFFCURVE",
"258 656 CURVE",
"258 715 OFFCURVE",
"205 763 OFFCURVE",
"144 763 CURVE SMOOTH",
"83 763 OFFCURVE",
"30 715 OFFCURVE",
"30 656 CURVE SMOOTH",
"30 595 OFFCURVE",
"81 547 OFFCURVE",
"144 547 CURVE SMOOTH"
);
}
);
width = 288;
}
);
unicode = 0069;
},
{
color = 1;
glyphname = j;
lastChange = "2016-10-18 11:13:33 +0000";
layers = (
{
layerId = "262880E7-CFE1-4BDA-902E-E24798F3240A";
paths = (
{
closed = 1;
nodes = (
"68 -211 OFFCURVE",
"120 -159 OFFCURVE",
"120 -74 CURVE SMOOTH",
"120 500 LINE",
"98 500 LINE",
"98 -74 LINE SMOOTH",
"98 -146 OFFCURVE",
"55 -190 OFFCURVE",
"-16 -190 CURVE",
"-16 -211 LINE"
);
},
{
closed = 1;
nodes = (
"128 669 OFFCURVE",
"140 681 OFFCURVE",
"140 700 CURVE SMOOTH",
"140 719 OFFCURVE",
"128 730 OFFCURVE",
"109 730 CURVE SMOOTH",
"90 730 OFFCURVE",
"78 719 OFFCURVE",
"78 700 CURVE SMOOTH",
"78 681 OFFCURVE",
"90 669 OFFCURVE",
"109 669 CURVE SMOOTH"
);
}
);
width = 218;
},
{
layerId = "4F25946F-63AC-42D6-8D55-01CF6A99025B";
paths = (
{
closed = 1;
nodes = (
"136 -236 OFFCURVE",
"249 -200 OFFCURVE",
"248 -39 CURVE",
"248 500 LINE",
"40 500 LINE",
"40 -8 LINE",
"40 -40 OFFCURVE",
"-14 -39 OFFCURVE",
"-47 -26 CURVE",
"-57 -201 LINE"
);
},
{
closed = 1;
nodes = (
"206 547 OFFCURVE",
"258 595 OFFCURVE",
"258 656 CURVE",
"258 715 OFFCURVE",
"206 763 OFFCURVE",
"144 763 CURVE SMOOTH",
"83 763 OFFCURVE",
"30 715 OFFCURVE",
"30 656 CURVE SMOOTH",
"30 595 OFFCURVE",
"81 547 OFFCURVE",
"144 547 CURVE SMOOTH"
);
}
);
width = 288;
}
);
unicode = 006A;
},
{
color = 1;
glyphname = k;
lastChange = "2016-10-18 11:13:33 +0000";
layers = (
{
layerId = "262880E7-CFE1-4BDA-902E-E24798F3240A";
paths = (
{
closed = 1;
nodes = (
"381 0 LINE",
"126 250 LINE",
"381 500 LINE",
"359 500 LINE",
"105 250 LINE",
"359 0 LINE"
);
},
{
closed = 1;
nodes = (
"120 0 LINE",
"120 700 LINE",
"98 700 LINE",
"98 0 LINE"
);
}
);
width = 412;
},
{
layerId = "4F25946F-63AC-42D6-8D55-01CF6A99025B";
paths = (
{
closed = 1;
nodes = (
"550 0 LINE",
"368 250 LINE",
"560 500 LINE",
"328 500 LINE",
"184 256 LINE",
"314 0 LINE"
);
},
{
closed = 1;
nodes = (
"228 0 LINE",
"229 700 LINE",
"41 700 LINE",
"40 0 LINE"
);
}
);
width = 525;
},
{
associatedMasterId = "4F25946F-63AC-42D6-8D55-01CF6A99025B";
layerId = "67D1648E-BAA1-4D62-B90C-A94E0FCB7E5A";
name = "DemiBold{119,100}";
paths = (
{
closed = 1;
nodes = (
"471 0 LINE",
"269 250 LINE",
"486 500 LINE",
"336 500 LINE",
"128 250 LINE",
"320 0 LINE"
);
},
{
closed = 1;
nodes = (
"176 0 LINE",
"177 700 LINE",
"56 700 LINE",
"55 0 LINE"
);
}
);
width = 478;
}
);
unicode = 006B;
},
{
color = 1;
glyphname = l;
lastChange = "2016-10-18 11:13:33 +0000";
layers = (
{
layerId = "262880E7-CFE1-4BDA-902E-E24798F3240A";
paths = (
{
closed = 1;
nodes = (
"120 0 LINE",
"120 700 LINE",
"98 700 LINE",
"98 0 LINE"
);
}
);
width = 218;
},
{
layerId = "4F25946F-63AC-42D6-8D55-01CF6A99025B";
paths = (
{
closed = 1;
nodes = (
"248 0 LINE",
"248 700 LINE",
"40 700 LINE",
"40 0 LINE"
);
}
);
width = 288;
}
);
unicode = 006C;
},
{
color = 1;
glyphname = m;
lastChange = "2016-10-18 11:13:32 +0000";
layers = (
{
layerId = "262880E7-CFE1-4BDA-902E-E24798F3240A";
paths = (
{
closed = 1;
nodes = (
"120 0 LINE",
"120 500 LINE",
"98 500 LINE",
"98 0 LINE"
);
},
{
closed = 1;
nodes = (
"410 0 LINE",
"410 345 LINE",
"410 445 OFFCURVE",
"349 506 OFFCURVE",
"255 506 CURVE SMOOTH",
"160 506 OFFCURVE",
"105 445 OFFCURVE",
"105 345 CURVE",
"120 345 LINE",
"120 432 OFFCURVE",
"171 485 OFFCURVE",
"254 485 CURVE SMOOTH",
"337 485 OFFCURVE",
"388 432 OFFCURVE",
"388 345 CURVE",
"388 0 LINE"
);
},
{
closed = 1;
nodes = (
"700 0 LINE",
"700 345 LINE SMOOTH",
"700 445 OFFCURVE",
"639 506 OFFCURVE",
"545 506 CURVE SMOOTH",
"450 506 OFFCURVE",
"395 445 OFFCURVE",
"395 345 CURVE",
"410 345 LINE",
"410 432 OFFCURVE",
"461 485 OFFCURVE",
"544 485 CURVE SMOOTH",
"627 485 OFFCURVE",
"678 432 OFFCURVE",
"678 345 CURVE SMOOTH",
"678 0 LINE"
);
}
);
width = 790;
},
{
layerId = "4F25946F-63AC-42D6-8D55-01CF6A99025B";
paths = (
{
closed = 1;
nodes = (
"248 0 LINE",
"248 500 LINE",
"40 500 LINE",
"40 0 LINE"
);
},
{
closed = 1;
nodes = (
"542 0 LINE",
"542 350 LINE SMOOTH",
"542 441 OFFCURVE",
"497 502 OFFCURVE",
"380 502 CURVE",
"232 502 OFFCURVE",
"183 387 OFFCURVE",
"183 286 CURVE",
"248 294 LINE",
"248 321 OFFCURVE",
"265 339 OFFCURVE",
"291 339 CURVE SMOOTH",
"317 339 OFFCURVE",
"335 321 OFFCURVE",
"335 294 CURVE SMOOTH",
"335 0 LINE"
);
},
{
closed = 1;
nodes = (
"836 0 LINE",
"836 350 LINE SMOOTH",
"836 441 OFFCURVE",
"788 502 OFFCURVE",
"670 502 CURVE",
"526 502 OFFCURVE",
"477 387 OFFCURVE",
"477 286 CURVE",
"542 294 LINE",
"542 321 OFFCURVE",
"559 339 OFFCURVE",
"585 339 CURVE SMOOTH",
"611 339 OFFCURVE",
"629 321 OFFCURVE",
"629 294 CURVE SMOOTH",
"629 0 LINE"
);
}
);
width = 869;
},
{
associatedMasterId = "4F25946F-63AC-42D6-8D55-01CF6A99025B";
layerId = "F5ED04A7-6D5C-4CB3-8E75-4B337E8B4478";
name = "Medium {91, 100}";
paths = (
{
closed = 1;
nodes = (
"154 0 LINE",
"154 500 LINE",
"62 500 LINE",
"62 0 LINE"
);
},
{
closed = 1;
nodes = (
"438 0 LINE",
"438 350 LINE SMOOTH",
"438 447 OFFCURVE",
"387 510 OFFCURVE",
"283 510 CURVE SMOOTH",
"174 510 OFFCURVE",
"116 440 OFFCURVE",
"116 336 CURVE",
"154 336 LINE",
"154 396 OFFCURVE",
"191 433 OFFCURVE",
"250 433 CURVE SMOOTH",
"309 433 OFFCURVE",
"346 396 OFFCURVE",
"346 336 CURVE SMOOTH",
"346 0 LINE"
);
},
{
closed = 1;
nodes = (
"722 0 LINE",
"722 350 LINE SMOOTH",
"722 447 OFFCURVE",
"671 510 OFFCURVE",
"567 510 CURVE SMOOTH",
"458 510 OFFCURVE",
"389 440 OFFCURVE",
"389 336 CURVE",
"438 336 LINE",
"438 396 OFFCURVE",
"475 433 OFFCURVE",
"534 433 CURVE SMOOTH",
"593 433 OFFCURVE",
"630 396 OFFCURVE",
"630 336 CURVE SMOOTH",
"630 0 LINE"
);
}
);
width = 793;
}
);
unicode = 006D;
},
{
color = 1;
glyphname = n;
lastChange = "2016-10-18 11:13:32 +0000";
layers = (
{
layerId = "262880E7-CFE1-4BDA-902E-E24798F3240A";
paths = (
{
closed = 1;
nodes = (
"420 0 LINE",
"420 346 LINE SMOOTH",
"420 444 OFFCURVE",
"362 504 OFFCURVE",
"267 504 CURVE SMOOTH",
"166 504 OFFCURVE",
"104 446 OFFCURVE",
"104 343 CURVE",
"120 343 LINE",
"120 430 OFFCURVE",
"175 483 OFFCURVE",
"265 483 CURVE SMOOTH",
"347 483 OFFCURVE",
"398 431 OFFCURVE",
"398 345 CURVE SMOOTH",
"398 0 LINE"
);
},
{
closed = 1;
nodes = (
"120 0 LINE",
"120 496 LINE",
"98 496 LINE",
"98 0 LINE"
);
}
);
width = 510;
},
{
layerId = "4F25946F-63AC-42D6-8D55-01CF6A99025B";
paths = (
{
closed = 1;
nodes = (
"542 0 LINE",
"542 350 LINE SMOOTH",
"542 441 OFFCURVE",
"497 505 OFFCURVE",
"380 505 CURVE",
"230 505 OFFCURVE",
"182 395 OFFCURVE",
"182 294 CURVE",
"248 294 LINE",
"248 321 OFFCURVE",
"265 339 OFFCURVE",
"291 339 CURVE SMOOTH",
"317 339 OFFCURVE",
"335 321 OFFCURVE",
"335 294 CURVE SMOOTH",
"335 0 LINE"
);
},
{
closed = 1;
nodes = (
"248 0 LINE",
"248 500 LINE",
"40 500 LINE",
"40 0 LINE"
);
}
);
width = 575;
},
{
associatedMasterId = "4F25946F-63AC-42D6-8D55-01CF6A99025B";
layerId = "48EED9EC-BBC9-457D-A249-2E4341C899C3";
name = "Medium {91, 100}";
paths = (
{
closed = 1;
nodes = (
"443 0 LINE",
"443 346 LINE SMOOTH",
"443 443 OFFCURVE",
"382 506 OFFCURVE",
"278 506 CURVE SMOOTH",
"160 506 OFFCURVE",
"92 425 OFFCURVE",
"92 325 CURVE",
"145 325 LINE",
"145 389 OFFCURVE",
"184 429 OFFCURVE",
"247 429 CURVE SMOOTH",
"311 429 OFFCURVE",
"350 389 OFFCURVE",
"350 325 CURVE SMOOTH",
"350 0 LINE"
);
},
{
closed = 1;
nodes = (
"145 0 LINE",
"145 498 LINE",
"52 498 LINE",
"52 0 LINE"
);
}
);
width = 485;
}
);
unicode = 006E;
},
{
color = 1;
glyphname = o;
lastChange = "2016-10-18 11:13:34 +0000";
layers = (
{
layerId = "262880E7-CFE1-4BDA-902E-E24798F3240A";
paths = (
{
closed = 1;
nodes = (
"343 -5 OFFCURVE",
"404 56 OFFCURVE",
"404 156 CURVE SMOOTH",
"404 344 LINE SMOOTH",
"404 444 OFFCURVE",
"343 505 OFFCURVE",
"243 505 CURVE SMOOTH",
"143 505 OFFCURVE",
"82 444 OFFCURVE",
"82 344 CURVE SMOOTH",
"82 156 LINE SMOOTH",
"82 56 OFFCURVE",
"143 -5 OFFCURVE",
"243 -5 CURVE SMOOTH"
);
},
{
closed = 1;
nodes = (
"157 16 OFFCURVE",
"104 70 OFFCURVE",
"104 156 CURVE SMOOTH",
"104 344 LINE SMOOTH",
"104 431 OFFCURVE",
"157 484 OFFCURVE",
"243 484 CURVE SMOOTH",
"329 484 OFFCURVE",
"382 431 OFFCURVE",
"382 344 CURVE SMOOTH",
"382 156 LINE SMOOTH",
"382 70 OFFCURVE",
"329 16 OFFCURVE",
"243 16 CURVE SMOOTH"
);
}
);
width = 486;
},
{
layerId = "4F25946F-63AC-42D6-8D55-01CF6A99025B";
paths = (
{
closed = 1;
nodes = (
"416 -13 OFFCURVE",
"518 65 OFFCURVE",
"526 180 CURVE",
"526 333 LINE",
"524 440 OFFCURVE",
"422 512 OFFCURVE",
"270 512 CURVE SMOOTH",
"118 512 OFFCURVE",
"16 440 OFFCURVE",
"16 333 CURVE SMOOTH",
"16 180 LINE SMOOTH",
"16 65 OFFCURVE",
"118 -13 OFFCURVE",
"267 -13 CURVE SMOOTH"
);
},
{
closed = 1;
nodes = (
"245 175 OFFCURVE",
"228 191 OFFCURVE",
"228 216 CURVE SMOOTH",
"228 283 LINE SMOOTH",
"228 308 OFFCURVE",
"245 324 OFFCURVE",
"271 324 CURVE SMOOTH",
"297 324 OFFCURVE",
"315 308 OFFCURVE",
"315 283 CURVE SMOOTH",
"315 216 LINE SMOOTH",
"315 191 OFFCURVE",
"297 175 OFFCURVE",
"271 175 CURVE SMOOTH"
);
}
);
width = 540;
}
);
unicode = 006F;
},
{
color = 1;
glyphname = p;
lastChange = "2016-10-18 11:13:32 +0000";
layers = (
{
layerId = "262880E7-CFE1-4BDA-902E-E24798F3240A";
paths = (
{
closed = 1;
nodes = (
"360 -7 OFFCURVE",
"420 54 OFFCURVE",
"420 154 CURVE SMOOTH",
"420 346 LINE SMOOTH",
"420 446 OFFCURVE",
"360 507 OFFCURVE",
"262 507 CURVE SMOOTH",
"164 507 OFFCURVE",
"100 444 OFFCURVE",
"100 344 CURVE SMOOTH",
"100 156 LINE SMOOTH",
"100 56 OFFCURVE",
"164 -7 OFFCURVE",
"262 -7 CURVE SMOOTH"
);
},
{
closed = 1;
nodes = (
"120 -200 LINE",
"120 500 LINE",
"98 500 LINE",
"98 -200 LINE"
);
},
{
closed = 1;
nodes = (
"173 14 OFFCURVE",
"120 67 OFFCURVE",
"120 154 CURVE SMOOTH",
"120 346 LINE SMOOTH",
"120 432 OFFCURVE",
"173 486 OFFCURVE",
"259 486 CURVE SMOOTH",
"345 486 OFFCURVE",
"398 432 OFFCURVE",
"398 346 CURVE SMOOTH",
"398 154 LINE SMOOTH",
"398 67 OFFCURVE",
"345 14 OFFCURVE",
"259 14 CURVE SMOOTH"
);
}
);
width = 503;
},
{
layerId = "4F25946F-63AC-42D6-8D55-01CF6A99025B";
paths = (
{
closed = 1;
nodes = (
"479 -5 OFFCURVE",
"541 61 OFFCURVE",
"541 152 CURVE SMOOTH",
"541 350 LINE SMOOTH",
"541 441 OFFCURVE",
"496 506 OFFCURVE",
"375 506 CURVE SMOOTH",
"217 506 OFFCURVE",
"186 396 OFFCURVE",
"182 298 CURVE",
"182 208 LINE SMOOTH",
"182 119 OFFCURVE",
"226 -5 OFFCURVE",
"372 -5 CURVE SMOOTH"
);
},
{
closed = 1;
nodes = (
"248 -200 LINE",
"248 500 LINE",
"40 500 LINE",
"40 -200 LINE"
);
},
{
closed = 1;
nodes = (
"264 163 OFFCURVE",
"247 181 OFFCURVE",
"247 208 CURVE SMOOTH",
"247 294 LINE SMOOTH",
"247 321 OFFCURVE",
"264 339 OFFCURVE",
"290 339 CURVE SMOOTH",
"316 339 OFFCURVE",
"334 321 OFFCURVE",
"334 294 CURVE SMOOTH",
"334 208 LINE SMOOTH",
"334 181 OFFCURVE",
"316 163 OFFCURVE",
"290 163 CURVE SMOOTH"
);
}
);
width = 566;
}
);
unicode = 0070;
},
{
color = 1;
glyphname = r;
lastChange = "2016-10-18 11:13:32 +0000";
layers = (
{
layerId = "262880E7-CFE1-4BDA-902E-E24798F3240A";
paths = (
{
closed = 1;
nodes = (
"120 331 LINE",
"120 418 OFFCURVE",
"170 483 OFFCURVE",
"252 483 CURVE SMOOTH",
"262 483 OFFCURVE",
"279 479 OFFCURVE",
"288 475 CURVE",
"305 488 LINE",
"291 496 OFFCURVE",
"271 502 OFFCURVE",
"252 502 CURVE SMOOTH",
"157 502 OFFCURVE",
"104 429 OFFCURVE",
"104 331 CURVE"
);
},
{
closed = 1;
nodes = (
"120 0 LINE",
"120 500 LINE",
"98 500 LINE",
"98 0 LINE"
);
}
);
width = 330;
},
{
layerId = "4F25946F-63AC-42D6-8D55-01CF6A99025B";
paths = (
{
closed = 1;
nodes = (
"248 248 LINE",
"248 282 OFFCURVE",
"288 299 OFFCURVE",
"320 299 CURVE SMOOTH",
"343 299 OFFCURVE",
"377 290 OFFCURVE",
"382 281 CURVE",
"424 464 LINE",
"421 483 OFFCURVE",
"381 499 OFFCURVE",
"339 499 CURVE SMOOTH",
"216 499 OFFCURVE",
"184 364 OFFCURVE",
"184 248 CURVE"
);
},
{
closed = 1;
nodes = (
"248 0 LINE",
"248 500 LINE",
"40 500 LINE",
"40 0 LINE"
);
}
);
width = 401;
}
);
unicode = 0072;
},
{
color = 1;
glyphname = s;
lastChange = "2016-10-18 11:13:33 +0000";
layers = (
{
layerId = "262880E7-CFE1-4BDA-902E-E24798F3240A";
paths = (
{
closed = 1;
nodes = (
"321 -4 OFFCURVE",
"387 49 OFFCURVE",
"387 126 CURVE SMOOTH",
"387 214 OFFCURVE",
"303 236 OFFCURVE",
"223 264 CURVE SMOOTH",
"134 295 OFFCURVE",
"85 311 OFFCURVE",
"85 378 CURVE SMOOTH",
"85 442 OFFCURVE",
"141 483 OFFCURVE",
"224 483 CURVE SMOOTH",
"307 483 OFFCURVE",
"363 438 OFFCURVE",
"363 369 CURVE SMOOTH",
"363 368 LINE",
"385 368 LINE",
"385 369 LINE SMOOTH",
"385 449 OFFCURVE",
"321 504 OFFCURVE",
"224 504 CURVE SMOOTH",
"127 504 OFFCURVE",
"63 453 OFFCURVE",
"63 378 CURVE SMOOTH",
"63 290 OFFCURVE",
"134 272 OFFCURVE",
"219 242 CURVE SMOOTH",
"295 215 OFFCURVE",
"365 196 OFFCURVE",
"365 126 CURVE SMOOTH",
"365 61 OFFCURVE",
"308 17 OFFCURVE",
"222 17 CURVE SMOOTH",
"139 17 OFFCURVE",
"83 61 OFFCURVE",
"83 126 CURVE SMOOTH",
"83 127 LINE",
"61 127 LINE",
"61 126 LINE SMOOTH",
"61 49 OFFCURVE",
"125 -4 OFFCURVE",
"222 -4 CURVE SMOOTH"
);
}
);
width = 448;
},
{
layerId = "4F25946F-63AC-42D6-8D55-01CF6A99025B";
paths = (
{
closed = 1;
nodes = (
"398 -10 OFFCURVE",
"484 50 OFFCURVE",
"484 151 CURVE SMOOTH",
"484 218 OFFCURVE",
"434 272 OFFCURVE",
"348 296 CURVE SMOOTH",
"288 313 OFFCURVE",
"212 318 OFFCURVE",
"212 351 CURVE SMOOTH",
"212 364 OFFCURVE",
"225 378 OFFCURVE",
"245 378 CURVE SMOOTH",
"265 378 OFFCURVE",
"281 364 OFFCURVE",
"281 341 CURVE",
"282 331 LINE",
"476 331 LINE",
"476 341 LINE",
"472 447 OFFCURVE",
"385 510 OFFCURVE",
"241 510 CURVE SMOOTH",
"95 510 OFFCURVE",
"9 452 OFFCURVE",
"9 353 CURVE SMOOTH",
"9 287 OFFCURVE",
"60 233 OFFCURVE",
"147 208 CURVE SMOOTH",
"203 192 OFFCURVE",
"275 187 OFFCURVE",
"275 149 CURVE SMOOTH",
"275 136 OFFCURVE",
"267 123 OFFCURVE",
"245 123 CURVE SMOOTH",
"226 123 OFFCURVE",
"211 133 OFFCURVE",
"207 155 CURVE SMOOTH",
"204 172 LINE",
"8 172 LINE",
"8 162 LINE",
"8 54 OFFCURVE",
"98 -10 OFFCURVE",
"251 -10 CURVE SMOOTH"
);
}
);
width = 489;
},
{
associatedMasterId = "262880E7-CFE1-4BDA-902E-E24798F3240A";
layerId = "677A5083-0B4E-4805-9AE1-F115960A3564";
name = "Semi Bold{101, 100}";
paths = (
{
closed = 1;
nodes = (
"365 -10 OFFCURVE",
"436 48 OFFCURVE",
"436 133 CURVE SMOOTH",
"436 201 OFFCURVE",
"390 252 OFFCURVE",
"297 286 CURVE SMOOTH",
"206 319 OFFCURVE",
"170 333 OFFCURVE",
"170 369 CURVE SMOOTH",
"170 401 OFFCURVE",
"198 421 OFFCURVE",
"244 421 CURVE SMOOTH",
"294 421 OFFCURVE",
"324 397 OFFCURVE",
"324 358 CURVE SMOOTH",
"324 352 LINE",
"431 352 LINE",
"431 358 LINE SMOOTH",
"431 452 OFFCURVE",
"360 510 OFFCURVE",
"246 510 CURVE SMOOTH",
"131 510 OFFCURVE",
"61 451 OFFCURVE",
"61 369 CURVE SMOOTH",
"61 295 OFFCURVE",
"117 248 OFFCURVE",
"197 219 CURVE SMOOTH",
"282 188 OFFCURVE",
"323 173 OFFCURVE",
"323 135 CURVE SMOOTH",
"323 103 OFFCURVE",
"293 78 OFFCURVE",
"246 78 CURVE SMOOTH",
"198 78 OFFCURVE",
"169 103 OFFCURVE",
"169 137 CURVE SMOOTH",
"169 146 LINE",
"59 146 LINE",
"59 141 LINE SMOOTH",
"59 47 OFFCURVE",
"133 -10 OFFCURVE",
"248 -10 CURVE SMOOTH"
);
}
);
width = 494;
}
);
unicode = 0073;
},
{
color = 1;
glyphname = t;
lastChange = "2016-10-18 11:13:33 +0000";
layers = (
{
layerId = "262880E7-CFE1-4BDA-902E-E24798F3240A";
paths = (
{
closed = 1;
nodes = (
"251 0 LINE",
"251 21 LINE",
"227 21 LINE SMOOTH",
"146 21 OFFCURVE",
"123 57 OFFCURVE",
"123 153 CURVE SMOOTH",
"123 610 LINE",
"101 610 LINE",
"101 153 LINE SMOOTH",
"101 43 OFFCURVE",
"133 0 OFFCURVE",
"227 0 CURVE SMOOTH"
);
},
{
closed = 1;
nodes = (
"237 479 LINE",
"237 500 LINE",
"37 500 LINE",
"37 479 LINE"
);
}
);
width = 282;
},
{
layerId = "4F25946F-63AC-42D6-8D55-01CF6A99025B";
paths = (
{
closed = 1;
nodes = (
"303 1 LINE",
"309 181 LINE",
"306 181 LINE",
"268 177 OFFCURVE",
"246 172 OFFCURVE",
"246 203 CURVE SMOOTH",
"246 700 LINE",
"52 700 LINE",
"52 163 LINE SMOOTH",
"52 3 OFFCURVE",
"115 -24 OFFCURVE",
"297 1 CURVE"
);
},
{
closed = 1;
nodes = (
"326 326 LINE",
"326 500 LINE",
"8 500 LINE",
"8 326 LINE"
);
}
);
width = 342;
}
);
unicode = 0074;
},
{
color = 1;
glyphname = u;
lastChange = "2016-10-18 11:13:32 +0000";
layers = (
{
layerId = "262880E7-CFE1-4BDA-902E-E24798F3240A";
paths = (
{
closed = 1;
nodes = (
"349 -3 OFFCURVE",
"409 57 OFFCURVE",
"409 157 CURVE",
"391 157 LINE",
"391 70 OFFCURVE",
"336 17 OFFCURVE",
"249 17 CURVE SMOOTH",
"164 17 OFFCURVE",
"113 67 OFFCURVE",
"113 154 CURVE SMOOTH",
"113 500 LINE",
"91 500 LINE",
"91 153 LINE SMOOTH",
"91 50 OFFCURVE",
"149 -3 OFFCURVE",
"245 -3 CURVE SMOOTH"
);
},
{
closed = 1;
nodes = (
"413 0 LINE",
"413 500 LINE",
"391 500 LINE",
"391 0 LINE"
);
}
);
width = 511;
},
{
layerId = "4F25946F-63AC-42D6-8D55-01CF6A99025B";
paths = (
{
closed = 1;
nodes = (
"347 -2 OFFCURVE",
"394 96 OFFCURVE",
"394 196 CURVE",
"329 188 LINE",
"329 165 OFFCURVE",
"311 150 OFFCURVE",
"285 150 CURVE SMOOTH",
"259 150 OFFCURVE",
"242 165 OFFCURVE",
"242 188 CURVE SMOOTH",
"242 500 LINE",
"34 500 LINE",
"34 150 LINE SMOOTH",
"34 49 OFFCURVE",
"83 -2 OFFCURVE",
"194 -2 CURVE SMOOTH"
);
},
{
closed = 1;
nodes = (
"537 0 LINE",
"537 500 LINE",
"329 500 LINE",
"329 0 LINE"
);
}
);
width = 577;
},
{
associatedMasterId = "4F25946F-63AC-42D6-8D55-01CF6A99025B";
layerId = "47FA07B0-C6A0-4AEE-ADEB-F55ADBF433D4";
name = "Medium{91,100}";
paths = (
{
closed = 1;
nodes = (
"335 -3 OFFCURVE",
"399 69 OFFCURVE",
"399 169 CURVE",
"354 169 LINE",
"354 106 OFFCURVE",
"314 68 OFFCURVE",
"251 68 CURVE SMOOTH",
"188 68 OFFCURVE",
"149 106 OFFCURVE",
"149 169 CURVE SMOOTH",
"149 500 LINE",
"56 500 LINE",
"56 154 LINE SMOOTH",
"56 54 OFFCURVE",
"112 -3 OFFCURVE",
"217 -3 CURVE SMOOTH"
);
},
{
closed = 1;
nodes = (
"446 0 LINE",
"446 500 LINE",
"354 500 LINE",
"354 0 LINE"
);
}
);
width = 508;
}
);
unicode = 0075;
},
{
color = 1;
glyphname = v;
lastChange = "2016-10-18 11:13:33 +0000";
layers = (
{
layerId = "262880E7-CFE1-4BDA-902E-E24798F3240A";
paths = (
{
closed = 1;
nodes = (
"224 0 LINE",
"389 500 LINE",
"367 500 LINE",
"213 35 LINE",
"59 500 LINE",
"37 500 LINE",
"202 0 LINE"
);
}
);
width = 426;
},
{
layerId = "4F25946F-63AC-42D6-8D55-01CF6A99025B";
paths = (
{
closed = 1;
nodes = (
"327 0 LINE",
"491 500 LINE",
"280 500 LINE",
"231 257 LINE",
"182 500 LINE",
"-29 500 LINE",
"135 0 LINE"
);
}
);
width = 462;
},
{
associatedMasterId = "262880E7-CFE1-4BDA-902E-E24798F3240A";
layerId = "30C42329-3409-4879-A8EC-0B65B1A31C66";
name = "Medium { 91, 100}";
paths = (
{
closed = 1;
nodes = (
"285 0 LINE",
"442 500 LINE",
"349 500 LINE",
"241 129 LINE",
"133 500 LINE",
"41 500 LINE",
"198 0 LINE"
);
}
);
width = 483;
}
);
unicode = 0076;
},
{
color = 1;
glyphname = w;
lastChange = "2016-10-18 11:13:32 +0000";
layers = (
{
layerId = "262880E7-CFE1-4BDA-902E-E24798F3240A";
paths = (
{
closed = 1;
nodes = (
"199 0 LINE",
"323 461 LINE",
"447 0 LINE",
"469 0 LINE",
"605 500 LINE",
"583 500 LINE",
"459 27 LINE",
"332 500 LINE",
"314 500 LINE",
"189 27 LINE",
"64 500 LINE",
"42 500 LINE",
"177 0 LINE"
);
}
);
width = 647;
},
{
layerId = "4F25946F-63AC-42D6-8D55-01CF6A99025B";
paths = (
{
closed = 1;
nodes = (
"299 0 LINE",
"332 240 LINE",
"369 0 LINE",
"566 0 LINE",
"686 500 LINE",
"492 500 LINE",
"459 287 LINE",
"419 500 LINE",
"250 500 LINE",
"211 287 LINE",
"176 500 LINE",
"-17 500 LINE",
"102 0 LINE"
);
}
);
width = 668;
}
);
unicode = 0077;
},
{
color = 1;
glyphname = x;
lastChange = "2016-10-18 11:13:32 +0000";
layers = (
{
layerId = "262880E7-CFE1-4BDA-902E-E24798F3240A";
paths = (
{
closed = 1;
nodes = (
"367 500 LINE",
"213 266 LINE",
"59 500 LINE",
"37 500 LINE",
"203 250 LINE",
"37 0 LINE",
"59 0 LINE",
"213 234 LINE",
"367 0 LINE",
"389 0 LINE",
"223 250 LINE",
"389 500 LINE"
);
}
);
width = 426;
},
{
layerId = "4F25946F-63AC-42D6-8D55-01CF6A99025B";
paths = (
{
closed = 1;
nodes = (
"283 500 LINE",
"238 411 LINE",
"194 500 LINE",
"-28 500 LINE",
"130 250 LINE",
"-28 0 LINE",
"194 0 LINE",
"238 89 LINE",
"283 0 LINE",
"504 0 LINE",
"347 250 LINE",
"504 500 LINE"
);
}
);
width = 476;
},
{
associatedMasterId = "262880E7-CFE1-4BDA-902E-E24798F3240A";
layerId = "A7F0FF68-370D-4ABA-A088-97B4F33DE289";
name = "Light Oct 15 16, 02:53";
paths = (
{
closed = 1;
nodes = (
"368 501 LINE",
"390 501 LINE",
"60 -1 LINE",
"38 -1 LINE"
);
},
{
closed = 1;
nodes = (
"38 501 LINE",
"60 501 LINE",
"390 -1 LINE",
"368 -1 LINE"
);
}
);
width = 428;
},
{
associatedMasterId = "4F25946F-63AC-42D6-8D55-01CF6A99025B";
layerId = "C8E6816F-D14D-432C-92C0-4654658DD355";
name = "Bold Oct 15 16, 02:53";
paths = (
{
closed = 1;
nodes = (
"306 500 LINE",
"527 500 LINE",
"217 0 LINE",
"-5 0 LINE"
);
},
{
closed = 1;
nodes = (
"-5 500 LINE",
"217 500 LINE",
"527 0 LINE",
"306 0 LINE"
);
}
);
width = 522;
}
);
unicode = 0078;
},
{
color = 1;
glyphname = y;
lastChange = "2016-10-18 11:13:33 +0000";
layers = (
{
layerId = "262880E7-CFE1-4BDA-902E-E24798F3240A";
paths = (
{
closed = 1;
nodes = (
"215 27 LINE",
"60 500 LINE",
"38 500 LINE",
"205 0 LINE",
"183 -67 LINE SMOOTH",
"149 -169 OFFCURVE",
"126 -190 OFFCURVE",
"63 -190 CURVE",
"63 -211 LINE",
"138 -211 OFFCURVE",
"167 -183 OFFCURVE",
"203 -73 CURVE SMOOTH",
"392 500 LINE",
"370 500 LINE"
);
}
);
width = 430;
},
{
layerId = "4F25946F-63AC-42D6-8D55-01CF6A99025B";
paths = (
{
closed = 1;
nodes = (
"222 321 LINE",
"176 500 LINE",
"-32 500 LINE",
"131 106 LINE",
"123 82 LINE SMOOTH",
"110 42 OFFCURVE",
"95 30 OFFCURVE",
"37 30 CURVE",
"37 -128 LINE",
"203 -128 OFFCURVE",
"261 -72 OFFCURVE",
"301 35 CURVE SMOOTH",
"476 500 LINE",
"268 500 LINE"
);
}
);
width = 444;
}
);
unicode = 0079;
},
{
color = 1;
glyphname = z;
lastChange = "2016-10-18 11:13:33 +0000";
layers = (
{
layerId = "262880E7-CFE1-4BDA-902E-E24798F3240A";
paths = (
{
closed = 1;
nodes = (
"354 0 LINE",
"354 21 LINE",
"61 21 LINE",
"364 477 LINE",
"364 498 LINE",
"42 498 LINE",
"42 477 LINE",
"341 477 LINE",
"38 21 LINE",
"38 0 LINE"
);
}
);
width = 401;
},
{
layerId = "4F25946F-63AC-42D6-8D55-01CF6A99025B";
paths = (
{
closed = 1;
nodes = (
"435 10 LINE",
"435 157 LINE",
"260 157 LINE",
"439 348 LINE",
"439 496 LINE",
"18 496 LINE",
"18 348 LINE",
"206 347 LINE",
"19 157 LINE",
"18 10 LINE"
);
}
);
width = 457;
},
{
associatedMasterId = "4F25946F-63AC-42D6-8D55-01CF6A99025B";
layerId = "516F1C78-99C1-4D19-A6A1-804BC5CB958E";
name = "Demibold {119,100}";
paths = (
{
closed = 1;
nodes = (
"389 6 LINE",
"389 113 LINE",
"183 113 LINE",
"391 386 LINE",
"391 497 LINE",
"32 497 LINE",
"32 386 LINE",
"255 386 LINE",
"42 113 LINE",
"42 6 LINE"
);
}
);
width = 441;
}
);
unicode = 007A;
},
{
color = 1;
glyphname = zero;
lastChange = "2016-10-18 11:13:33 +0000";
layers = (
{
layerId = "262880E7-CFE1-4BDA-902E-E24798F3240A";
paths = (
{
closed = 1;
nodes = (
"374 -9 OFFCURVE",
"429 45 OFFCURVE",
"429 150 CURVE SMOOTH",
"429 550 LINE SMOOTH",
"429 655 OFFCURVE",
"374 709 OFFCURVE",
"269 709 CURVE SMOOTH",
"164 709 OFFCURVE",
"109 655 OFFCURVE",
"109 550 CURVE SMOOTH",
"109 150 LINE SMOOTH",
"109 45 OFFCURVE",
"164 -9 OFFCURVE",
"269 -9 CURVE SMOOTH"
);
},
{
closed = 1;
nodes = (
"178 11 OFFCURVE",
"131 58 OFFCURVE",
"131 150 CURVE SMOOTH",
"131 550 LINE SMOOTH",
"131 642 OFFCURVE",
"178 690 OFFCURVE",
"269 690 CURVE SMOOTH",
"360 690 OFFCURVE",
"407 642 OFFCURVE",
"407 550 CURVE SMOOTH",
"407 150 LINE SMOOTH",
"407 58 OFFCURVE",
"360 11 OFFCURVE",
"269 11 CURVE SMOOTH"
);
}
);
width = 538;
},
{
layerId = "4F25946F-63AC-42D6-8D55-01CF6A99025B";
paths = (
{
closed = 1;
nodes = (
"458 -10 OFFCURVE",
"546 73 OFFCURVE",
"546 233 CURVE SMOOTH",
"546 467 LINE SMOOTH",
"546 627 OFFCURVE",
"458 710 OFFCURVE",
"286 710 CURVE SMOOTH",
"114 710 OFFCURVE",
"26 627 OFFCURVE",
"26 467 CURVE SMOOTH",
"26 233 LINE SMOOTH",
"26 73 OFFCURVE",
"114 -10 OFFCURVE",
"286 -10 CURVE SMOOTH"
);
},
{
closed = 1;
nodes = (
"257 174 OFFCURVE",
"238 194 OFFCURVE",
"238 223 CURVE SMOOTH",
"238 477 LINE SMOOTH",
"238 506 OFFCURVE",
"257 526 OFFCURVE",
"286 526 CURVE SMOOTH",
"315 526 OFFCURVE",
"334 506 OFFCURVE",
"334 477 CURVE SMOOTH",
"334 223 LINE SMOOTH",
"334 194 OFFCURVE",
"315 174 OFFCURVE",
"286 174 CURVE SMOOTH"
);
}
);
width = 572;
}
);
unicode = 0030;
},
{
color = 1;
glyphname = one;
lastChange = "2016-10-18 11:13:32 +0000";
layers = (
{
layerId = "4F25946F-63AC-42D6-8D55-01CF6A99025B";
paths = (
{
closed = 1;
nodes = (
"278 0 LINE",
"278 700 LINE",
"66 700 LINE",
"66 0 LINE"
);
},
{
closed = 1;
nodes = (
"3 512 LINE",
"66 512 LINE",
"66 700 LINE",
"3 674 LINE"
);
}
);
width = 326;
},
{
layerId = "262880E7-CFE1-4BDA-902E-E24798F3240A";
paths = (
{
closed = 1;
nodes = (
"142 0 LINE",
"142 700 LINE",
"120 700 LINE",
"120 0 LINE"
);
},
{
closed = 1;
nodes = (
"79 647 LINE",
"120 679 LINE",
"120 700 LINE",
"79 668 LINE"
);
}
);
width = 260;
}
);
unicode = 0031;
},
{
color = 1;
glyphname = two;
lastChange = "2016-10-18 11:13:33 +0000";
layers = (
{
layerId = "4F25946F-63AC-42D6-8D55-01CF6A99025B";
paths = (
{
closed = 1;
nodes = (
"508 0 LINE",
"508 188 LINE",
"261 188 LINE",
"492 447 LINE",
"509 475 OFFCURVE",
"520 500 OFFCURVE",
"520 534 CURVE SMOOTH",
"520 633 OFFCURVE",
"425 700 OFFCURVE",
"268 700 CURVE SMOOTH",
"109 700 OFFCURVE",
"8 631 OFFCURVE",
"8 519 CURVE",
"8 454 LINE",
"216 455 LINE",
"216 481 LINE",
"216 506 OFFCURVE",
"233 523 OFFCURVE",
"258 523 CURVE SMOOTH",
"286 523 OFFCURVE",
"298 502 OFFCURVE",
"298 489 CURVE SMOOTH",
"298 474 OFFCURVE",
"284 455 OFFCURVE",
"259 426 CURVE",
"11 171 LINE",
"11 0 LINE"
);
}
);
width = 525;
},
{
layerId = "262880E7-CFE1-4BDA-902E-E24798F3240A";
paths = (
{
closed = 1;
nodes = (
"399 0 LINE",
"399 21 LINE",
"96 21 LINE",
"336 364 LINE SMOOTH",
"374 419 OFFCURVE",
"398 470 OFFCURVE",
"398 530 CURVE SMOOTH",
"398 615 OFFCURVE",
"349 705 OFFCURVE",
"235 705 CURVE SMOOTH",
"130 705 OFFCURVE",
"67 635 OFFCURVE",
"67 500 CURVE",
"67 479 LINE",
"89 479 LINE",
"89 498 LINE SMOOTH",
"89 616 OFFCURVE",
"143 684 OFFCURVE",
"234 684 CURVE SMOOTH",
"322 684 OFFCURVE",
"376 620 OFFCURVE",
"376 528 CURVE SMOOTH",
"376 476 OFFCURVE",
"359 434 OFFCURVE",
"331 395 CURVE SMOOTH",
"67 21 LINE",
"67 0 LINE"
);
}
);
width = 469;
}
);
unicode = 0032;
},
{
color = 1;
glyphname = eight;
lastChange = "2016-10-18 11:13:33 +0000";
layers = (
{
layerId = "262880E7-CFE1-4BDA-902E-E24798F3240A";
paths = (
{
closed = 1;
nodes = (
"365 364 OFFCURVE",
"420 418 OFFCURVE",
"420 523 CURVE SMOOTH",
"420 548 LINE SMOOTH",
"420 653 OFFCURVE",
"365 707 OFFCURVE",
"260 707 CURVE SMOOTH",
"155 707 OFFCURVE",
"100 653 OFFCURVE",
"100 548 CURVE SMOOTH",
"100 523 LINE SMOOTH",
"100 418 OFFCURVE",
"155 364 OFFCURVE",
"260 364 CURVE SMOOTH"
);
},
{
closed = 1;
nodes = (
"169 384 OFFCURVE",
"122 431 OFFCURVE",
"122 523 CURVE SMOOTH",
"122 548 LINE SMOOTH",
"122 640 OFFCURVE",
"169 688 OFFCURVE",
"260 688 CURVE SMOOTH",
"351 688 OFFCURVE",
"398 640 OFFCURVE",
"398 548 CURVE SMOOTH",
"398 523 LINE SMOOTH",
"398 431 OFFCURVE",
"351 384 OFFCURVE",
"260 384 CURVE SMOOTH"
);
},
{
closed = 1;
nodes = (
"365 -18 OFFCURVE",
"420 36 OFFCURVE",
"420 141 CURVE SMOOTH",
"420 225 LINE SMOOTH",
"420 330 OFFCURVE",
"365 384 OFFCURVE",
"260 384 CURVE SMOOTH",
"155 384 OFFCURVE",
"100 330 OFFCURVE",
"100 225 CURVE SMOOTH",
"100 141 LINE SMOOTH",
"100 36 OFFCURVE",
"155 -18 OFFCURVE",
"260 -18 CURVE SMOOTH"
);
},
{
closed = 1;
nodes = (
"169 2 OFFCURVE",
"122 49 OFFCURVE",
"122 141 CURVE SMOOTH",
"122 225 LINE SMOOTH",
"122 317 OFFCURVE",
"169 365 OFFCURVE",
"260 365 CURVE SMOOTH",
"351 365 OFFCURVE",
"398 317 OFFCURVE",
"398 225 CURVE SMOOTH",
"398 141 LINE SMOOTH",
"398 49 OFFCURVE",
"351 2 OFFCURVE",
"260 2 CURVE SMOOTH"
);
}
);
width = 520;
},
{
layerId = "4F25946F-63AC-42D6-8D55-01CF6A99025B";
paths = (
{
closed = 1;
nodes = (
"312 337 OFFCURVE",
"503 343 OFFCURVE",
"503 498 CURVE",
"503 507 LINE",
"501 641 OFFCURVE",
"420 711 OFFCURVE",
"267 711 CURVE",
"113 711 OFFCURVE",
"33 650 OFFCURVE",
"33 516 CURVE",
"33 507 LINE",
"34 344 OFFCURVE",
"214 337 OFFCURVE",
"267 337 CURVE SMOOTH"
);
},
{
closed = 1;
nodes = (
"241 458 OFFCURVE",
"224 474 OFFCURVE",
"224 499 CURVE SMOOTH",
"224 533 LINE SMOOTH",
"224 558 OFFCURVE",
"241 574 OFFCURVE",
"267 574 CURVE SMOOTH",
"293 574 OFFCURVE",
"311 558 OFFCURVE",
"311 533 CURVE SMOOTH",
"311 499 LINE SMOOTH",
"311 474 OFFCURVE",
"293 458 OFFCURVE",
"267 458 CURVE SMOOTH"
);
},
{
closed = 1;
nodes = (
"442 -5 OFFCURVE",
"523 77 OFFCURVE",
"523 202 CURVE",
"523 231 LINE",
"523 324 OFFCURVE",
"432 455 OFFCURVE",
"268 401 CURVE",
"110 455 OFFCURVE",
"13 316 OFFCURVE",
"13 231 CURVE",
"13 202 LINE",
"14 69 OFFCURVE",
"100 -5 OFFCURVE",
"267 -5 CURVE SMOOTH"
);
},
{
closed = 1;
nodes = (
"241 139 OFFCURVE",
"224 155 OFFCURVE",
"224 180 CURVE SMOOTH",
"224 258 LINE SMOOTH",
"224 283 OFFCURVE",
"241 299 OFFCURVE",
"267 299 CURVE",
"293 299 OFFCURVE",
"311 283 OFFCURVE",
"311 258 CURVE SMOOTH",
"311 180 LINE SMOOTH",
"311 155 OFFCURVE",
"293 139 OFFCURVE",
"267 139 CURVE SMOOTH"
);
}
);
width = 535;
},
{
associatedMasterId = "4F25946F-63AC-42D6-8D55-01CF6A99025B";
layerId = "9541491C-EA7C-4850-9E65-38E203544E44";
name = "Medium {91,100}";
paths = (
{
closed = 1;
nodes = (
"378 354 OFFCURVE",
"448 413 OFFCURVE",
"448 514 CURVE SMOOTH",
"448 532 LINE SMOOTH",
"447 644 OFFCURVE",
"377 709 OFFCURVE",
"259 709 CURVE SMOOTH",
"141 709 OFFCURVE",
"71 645 OFFCURVE",
"71 536 CURVE SMOOTH",
"71 517 LINE SMOOTH",
"71 414 OFFCURVE",
"141 354 OFFCURVE",
"259 354 CURVE SMOOTH"
);
},
{
closed = 1;
nodes = (
"195 416 OFFCURVE",
"157 453 OFFCURVE",
"157 517 CURVE SMOOTH",
"157 546 LINE SMOOTH",
"157 610 OFFCURVE",
"195 648 OFFCURVE",
"259 648 CURVE SMOOTH",
"323 648 OFFCURVE",
"361 610 OFFCURVE",
"361 546 CURVE SMOOTH",
"361 517 LINE SMOOTH",
"361 453 OFFCURVE",
"323 416 OFFCURVE",
"259 416 CURVE SMOOTH"
);
},
{
closed = 1;
nodes = (
"383 -13 OFFCURVE",
"456 52 OFFCURVE",
"456 164 CURVE SMOOTH",
"456 227 LINE SMOOTH",
"456 350 OFFCURVE",
"383 410 OFFCURVE",
"260 390 CURVE SMOOTH",
"136 411 OFFCURVE",
"63 350 OFFCURVE",
"63 227 CURVE SMOOTH",
"63 164 LINE SMOOTH",
"64 52 OFFCURVE",
"136 -13 OFFCURVE",
"259 -13 CURVE SMOOTH"
);
},
{
closed = 1;
nodes = (
"195 54 OFFCURVE",
"157 92 OFFCURVE",
"157 156 CURVE SMOOTH",
"157 238 LINE SMOOTH",
"157 302 OFFCURVE",
"195 340 OFFCURVE",
"259 340 CURVE SMOOTH",
"323 340 OFFCURVE",
"361 302 OFFCURVE",
"361 238 CURVE SMOOTH",
"361 156 LINE SMOOTH",
"361 92 OFFCURVE",
"323 54 OFFCURVE",
"259 54 CURVE SMOOTH"
);
}
);
width = 519;
}
);
unicode = 0038;
},
{
color = 1;
glyphname = colon;
lastChange = "2016-10-18 11:13:34 +0000";
layers = (
{
layerId = "262880E7-CFE1-4BDA-902E-E24798F3240A";
paths = (
{
closed = 1;
nodes = (
"181 37 OFFCURVE",
"200 55 OFFCURVE",
"200 78 CURVE SMOOTH",
"200 100 OFFCURVE",
"181 118 OFFCURVE",
"159 118 CURVE SMOOTH",
"137 118 OFFCURVE",
"118 100 OFFCURVE",
"118 78 CURVE SMOOTH",
"118 55 OFFCURVE",
"136 37 OFFCURVE",
"159 37 CURVE SMOOTH"
);
},
{
closed = 1;
nodes = (
"181 350 OFFCURVE",
"200 368 OFFCURVE",
"200 391 CURVE SMOOTH",
"200 413 OFFCURVE",
"181 431 OFFCURVE",
"159 431 CURVE SMOOTH",
"137 431 OFFCURVE",
"118 413 OFFCURVE",
"118 391 CURVE SMOOTH",
"118 368 OFFCURVE",
"136 350 OFFCURVE",
"159 350 CURVE SMOOTH"
);
}
);
width = 318;
},
{
layerId = "4F25946F-63AC-42D6-8D55-01CF6A99025B";
paths = (
{
closed = 1;
nodes = (
"190 -6 OFFCURVE",
"239 40 OFFCURVE",
"239 99 CURVE",
"239 156 OFFCURVE",
"190 202 OFFCURVE",
"133 202 CURVE SMOOTH",
"76 202 OFFCURVE",
"27 156 OFFCURVE",
"27 99 CURVE SMOOTH",
"27 40 OFFCURVE",
"74 -6 OFFCURVE",
"133 -6 CURVE SMOOTH"
);
},
{
closed = 1;
nodes = (
"190 288 OFFCURVE",
"239 334 OFFCURVE",
"239 393 CURVE",
"239 450 OFFCURVE",
"190 496 OFFCURVE",
"133 496 CURVE SMOOTH",
"76 496 OFFCURVE",
"27 450 OFFCURVE",
"27 393 CURVE SMOOTH",
"27 334 OFFCURVE",
"74 288 OFFCURVE",
"133 288 CURVE SMOOTH"
);
}
);
width = 265;
}
);
unicode = 003A;
},
{
color = 1;
glyphname = comma;
lastChange = "2016-10-18 11:13:32 +0000";
layers = (
{
layerId = "262880E7-CFE1-4BDA-902E-E24798F3240A";
paths = (
{
closed = 1;
nodes = (
"187 153 LINE",
"165 153 LINE",
"110 -66 LINE",
"132 -66 LINE"
);
}
);
width = 298;
},
{
layerId = "4F25946F-63AC-42D6-8D55-01CF6A99025B";
paths = (
{
closed = 1;
nodes = (
"246 143 LINE",
"66 142 LINE",
"47 -86 LINE",
"195 -86 LINE"
);
}
);
width = 278;
}
);
unicode = 002C;
},
{
color = 1;
glyphname = exclam;
lastChange = "2016-10-18 11:13:32 +0000";
layers = (
{
layerId = "262880E7-CFE1-4BDA-902E-E24798F3240A";
paths = (
{
closed = 1;
nodes = (
"163 220 LINE",
"163 700 LINE",
"141 700 LINE",
"141 220 LINE"
);
},
{
closed = 1;
nodes = (
"171 5 OFFCURVE",
"190 23 OFFCURVE",
"190 46 CURVE SMOOTH",
"190 68 OFFCURVE",
"171 86 OFFCURVE",
"149 86 CURVE SMOOTH",
"127 86 OFFCURVE",
"108 68 OFFCURVE",
"108 46 CURVE SMOOTH",
"108 23 OFFCURVE",
"126 5 OFFCURVE",
"149 5 CURVE SMOOTH"
);
}
);
width = 302;
},
{
layerId = "4F25946F-63AC-42D6-8D55-01CF6A99025B";
paths = (
{
closed = 1;
nodes = (
"218 250 LINE",
"248 700 LINE",
"40 700 LINE",
"70 250 LINE"
);
},
{
closed = 1;
nodes = (
"199 -6 OFFCURVE",
"248 40 OFFCURVE",
"248 99 CURVE",
"248 156 OFFCURVE",
"199 202 OFFCURVE",
"142 202 CURVE SMOOTH",
"85 202 OFFCURVE",
"36 156 OFFCURVE",
"36 99 CURVE SMOOTH",
"36 40 OFFCURVE",
"83 -6 OFFCURVE",
"142 -6 CURVE SMOOTH"
);
}
);
width = 287;
}
);
unicode = 0021;
},
{
color = 1;
glyphname = period;
lastChange = "2016-10-18 11:13:33 +0000";
layers = (
{
layerId = "262880E7-CFE1-4BDA-902E-E24798F3240A";
paths = (
{
closed = 1;
nodes = (
"192 5 OFFCURVE",
"211 23 OFFCURVE",
"211 46 CURVE SMOOTH",
"211 68 OFFCURVE",
"192 86 OFFCURVE",
"170 86 CURVE SMOOTH",
"148 86 OFFCURVE",
"129 68 OFFCURVE",
"129 46 CURVE SMOOTH",
"129 23 OFFCURVE",
"147 5 OFFCURVE",
"170 5 CURVE SMOOTH"
);
}
);
width = 340;
},
{
layerId = "4F25946F-63AC-42D6-8D55-01CF6A99025B";
paths = (
{
closed = 1;
nodes = (
"198 -6 OFFCURVE",
"247 40 OFFCURVE",
"247 99 CURVE",
"247 156 OFFCURVE",
"198 202 OFFCURVE",
"141 202 CURVE SMOOTH",
"84 202 OFFCURVE",
"35 156 OFFCURVE",
"35 99 CURVE SMOOTH",
"35 40 OFFCURVE",
"82 -6 OFFCURVE",
"141 -6 CURVE SMOOTH"
);
}
);
width = 282;
}
);
unicode = 002E;
},
{
color = 1;
glyphname = question;
lastChange = "2016-10-18 11:13:33 +0000";
layers = (
{
layerId = "4F25946F-63AC-42D6-8D55-01CF6A99025B";
paths = (
{
closed = 1;
nodes = (
"327 223 LINE",
"327 238 OFFCURVE",
"327 256 OFFCURVE",
"327 262 CURVE SMOOTH",
"327 330 OFFCURVE",
"483 329 OFFCURVE",
"483 494 CURVE SMOOTH",
"483 629 OFFCURVE",
"385 710 OFFCURVE",
"239 710 CURVE SMOOTH",
"84 710 OFFCURVE",
"-19 618 OFFCURVE",
"-19 479 CURVE SMOOTH",
"-19 474 LINE",
"193 464 LINE",
"193 479 LINE SMOOTH",
"193 502 OFFCURVE",
"209 518 OFFCURVE",
"233 518 CURVE SMOOTH",
"254 518 OFFCURVE",
"268 506 OFFCURVE",
"268 487 CURVE SMOOTH",
"268 424 OFFCURVE",
"123 423 OFFCURVE",
"123 290 CURVE SMOOTH",
"123 268 OFFCURVE",
"123 261 OFFCURVE",
"123 224 CURVE"
);
},
{
closed = 1;
nodes = (
"287 -6 OFFCURVE",
"336 40 OFFCURVE",
"336 99 CURVE",
"336 156 OFFCURVE",
"287 202 OFFCURVE",
"230 202 CURVE SMOOTH",
"173 202 OFFCURVE",
"124 156 OFFCURVE",
"124 99 CURVE SMOOTH",
"124 40 OFFCURVE",
"171 -6 OFFCURVE",
"230 -6 CURVE SMOOTH"
);
}
);
width = 475;
},
{
layerId = "262880E7-CFE1-4BDA-902E-E24798F3240A";
paths = (
{
closed = 1;
nodes = (
"258 239 LINE",
"228 243 OFFCURVE",
"213 254 OFFCURVE",
"213 275 CURVE SMOOTH",
"213 346 OFFCURVE",
"394 378 OFFCURVE",
"394 546 CURVE SMOOTH",
"394 645 OFFCURVE",
"331 709 OFFCURVE",
"237 709 CURVE SMOOTH",
"142 709 OFFCURVE",
"78 645 OFFCURVE",
"78 550 CURVE SMOOTH",
"78 500 LINE",
"100 500 LINE",
"100 550 LINE SMOOTH",
"100 633 OFFCURVE",
"155 688 OFFCURVE",
"237 688 CURVE SMOOTH",
"318 688 OFFCURVE",
"372 633 OFFCURVE",
"372 549 CURVE SMOOTH",
"372 395 OFFCURVE",
"189 364 OFFCURVE",
"189 271 CURVE SMOOTH",
"189 235 OFFCURVE",
"217 213 OFFCURVE",
"258 215 CURVE"
);
},
{
closed = 1;
nodes = (
"244 5 OFFCURVE",
"263 23 OFFCURVE",
"263 46 CURVE SMOOTH",
"263 68 OFFCURVE",
"244 86 OFFCURVE",
"222 86 CURVE SMOOTH",
"200 86 OFFCURVE",
"181 68 OFFCURVE",
"181 46 CURVE SMOOTH",
"181 23 OFFCURVE",
"199 5 OFFCURVE",
"222 5 CURVE SMOOTH"
);
}
);
width = 476;
},
{
associatedMasterId = "4F25946F-63AC-42D6-8D55-01CF6A99025B";
layerId = "E56F6CC4-F9B5-46E1-BC01-FC7B34A3882B";
name = "DemiBold {119,100}";
paths = (
{
closed = 1;
nodes = (
"344 261 LINE",
"333 262 OFFCURVE",
"324 261 OFFCURVE",
"324 276 CURVE SMOOTH",
"324 341 OFFCURVE",
"489 355 OFFCURVE",
"489 519 CURVE SMOOTH",
"489 634 OFFCURVE",
"409 710 OFFCURVE",
"286 710 CURVE SMOOTH",
"161 710 OFFCURVE",
"74 630 OFFCURVE",
"74 512 CURVE SMOOTH",
"74 486 LINE",
"198 481 LINE",
"198 512 LINE SMOOTH",
"198 562 OFFCURVE",
"231 597 OFFCURVE",
"283 597 CURVE SMOOTH",
"333 597 OFFCURVE",
"364 565 OFFCURVE",
"364 516 CURVE SMOOTH",
"364 401 OFFCURVE",
"194 408 OFFCURVE",
"194 270 CURVE SMOOTH",
"194 214 OFFCURVE",
"222 166 OFFCURVE",
"332 182 CURVE"
);
},
{
closed = 1;
nodes = (
"313 -1 OFFCURVE",
"348 32 OFFCURVE",
"348 74 CURVE SMOOTH",
"348 115 OFFCURVE",
"313 148 OFFCURVE",
"272 148 CURVE SMOOTH",
"232 148 OFFCURVE",
"197 115 OFFCURVE",
"197 74 CURVE SMOOTH",
"197 32 OFFCURVE",
"230 -1 OFFCURVE",
"272 -1 CURVE SMOOTH"
);
}
);
width = 539;
}
);
unicode = 003F;
},
{
color = 1;
glyphname = quotedbl;
lastChange = "2016-10-18 11:13:32 +0000";
layers = (
{
layerId = "262880E7-CFE1-4BDA-902E-E24798F3240A";
paths = (
{
closed = 1;
nodes = (
"269 500 LINE",
"269 692 LINE",
"247 692 LINE",
"247 500 LINE"
);
},
{
closed = 1;
nodes = (
"159 500 LINE",
"159 692 LINE",
"137 692 LINE",
"137 500 LINE"
);
}
);
width = 406;
},
{
layerId = "4F25946F-63AC-42D6-8D55-01CF6A99025B";
paths = (
{
closed = 1;
nodes = (
"514 481 LINE",
"524 693 LINE",
"322 693 LINE",
"330 481 LINE"
);
},
{
closed = 1;
nodes = (
"244 481 LINE",
"254 693 LINE",
"52 693 LINE",
"62 481 LINE"
);
}
);
width = 576;
}
);
unicode = 0022;
},
{
color = 1;
glyphname = quotesingle;
lastChange = "2016-10-18 11:13:33 +0000";
layers = (
{
layerId = "262880E7-CFE1-4BDA-902E-E24798F3240A";
paths = (
{
closed = 1;
nodes = (
"159 697 LINE",
"137 697 LINE",
"137 507 LINE",
"159 507 LINE"
);
}
);
width = 296;
},
{
layerId = "4F25946F-63AC-42D6-8D55-01CF6A99025B";
paths = (
{
closed = 1;
nodes = (
"236 699 LINE",
"52 699 LINE",
"62 452 LINE",
"226 452 LINE"
);
}
);
width = 288;
}
);
unicode = 0027;
},
{
color = 1;
glyphname = semicolon;
lastChange = "2016-10-18 11:13:33 +0000";
layers = (
{
layerId = "262880E7-CFE1-4BDA-902E-E24798F3240A";
paths = (
{
closed = 1;
nodes = (
"178 370 OFFCURVE",
"197 388 OFFCURVE",
"197 411 CURVE",
"197 433 OFFCURVE",
"178 451 OFFCURVE",
"156 451 CURVE SMOOTH",
"134 451 OFFCURVE",
"115 433 OFFCURVE",
"115 411 CURVE SMOOTH",
"115 388 OFFCURVE",
"133 370 OFFCURVE",
"156 370 CURVE SMOOTH"
);
},
{
closed = 1;
nodes = (
"136 -60 LINE",
"172 147 LINE",
"150 147 LINE",
"114 -60 LINE"
);
}
);
width = 304;
},
{
layerId = "4F25946F-63AC-42D6-8D55-01CF6A99025B";
paths = (
{
closed = 1;
nodes = (
"198 288 OFFCURVE",
"247 334 OFFCURVE",
"247 393 CURVE",
"247 450 OFFCURVE",
"198 496 OFFCURVE",
"141 496 CURVE SMOOTH",
"84 496 OFFCURVE",
"35 450 OFFCURVE",
"35 393 CURVE SMOOTH",
"35 334 OFFCURVE",
"82 288 OFFCURVE",
"141 288 CURVE SMOOTH"
);
},
{
closed = 1;
nodes = (
"182 -46 LINE",
"233 183 LINE",
"63 182 LINE",
"44 -46 LINE"
);
}
);
width = 276;
}
);
unicode = 003B;
},
{
color = 1;
glyphname = slash;
lastChange = "2016-10-18 11:13:32 +0000";
layers = (
{
layerId = "262880E7-CFE1-4BDA-902E-E24798F3240A";
paths = (
{
closed = 1;
nodes = (
"63 0 LINE",
"201 700 LINE",
"179 700 LINE",
"41 0 LINE"
);
}
);
width = 242;
},
{
layerId = "4F25946F-63AC-42D6-8D55-01CF6A99025B";
paths = (
{
closed = 1;
nodes = (
"179 0 LINE",
"317 700 LINE",
"115 700 LINE",
"-23 0 LINE"
);
}
);
width = 294;
}
);
unicode = 002F;
},
{
color = 1;
glyphname = emdash;
lastChange = "2016-10-18 11:13:33 +0000";
layers = (
{
layerId = "262880E7-CFE1-4BDA-902E-E24798F3240A";
paths = (
{
closed = 1;
nodes = (
"506 251 LINE",
"506 272 LINE",
"98 272 LINE",
"98 251 LINE"
);
}
);
width = 604;
},
{
layerId = "4F25946F-63AC-42D6-8D55-01CF6A99025B";
paths = (
{
closed = 1;
nodes = (
"640 180 LINE",
"640 368 LINE",
"40 368 LINE",
"40 180 LINE"
);
}
);
width = 680;
}
);
unicode = 2014;
},
{
color = 1;
glyphname = hyphen;
lastChange = "2016-10-18 11:13:33 +0000";
layers = (
{
layerId = "4F25946F-63AC-42D6-8D55-01CF6A99025B";
paths = (
{
closed = 1;
nodes = (
"320 180 LINE",
"320 368 LINE",
"40 368 LINE",
"40 180 LINE"
);
}
);
width = 360;
},
{
layerId = "262880E7-CFE1-4BDA-902E-E24798F3240A";
paths = (
{
closed = 1;
nodes = (
"356 251 LINE",
"356 272 LINE",
"98 272 LINE",
"98 251 LINE"
);
}
);
width = 454;
}
);
unicode = 002D;
},
{
color = 1;
glyphname = dollar;
lastChange = "2016-10-18 11:13:33 +0000";
layers = (
{
layerId = "4F25946F-63AC-42D6-8D55-01CF6A99025B";
paths = (
{
closed = 1;
nodes = (
"431 -10 OFFCURVE",
"525 74 OFFCURVE",
"525 200 CURVE SMOOTH",
"525 312 OFFCURVE",
"451 381 OFFCURVE",
"338 425 CURVE SMOOTH",
"292 443 OFFCURVE",
"239 456 OFFCURVE",
"239 489 CURVE SMOOTH",
"239 503 OFFCURVE",
"249 518 OFFCURVE",
"273 518 CURVE SMOOTH",
"299 518 OFFCURVE",
"314 501 OFFCURVE",
"314 479 CURVE SMOOTH",
"314 464 LINE",
"526 474 LINE",
"526 479 LINE SMOOTH",
"526 617 OFFCURVE",
"419 710 OFFCURVE",
"267 710 CURVE SMOOTH",
"120 710 OFFCURVE",
"24 624 OFFCURVE",
"24 498 CURVE SMOOTH",
"24 389 OFFCURVE",
"97 318 OFFCURVE",
"211 275 CURVE SMOOTH",
"253 259 OFFCURVE",
"309 245 OFFCURVE",
"309 214 CURVE SMOOTH",
"309 201 OFFCURVE",
"300 182 OFFCURVE",
"274 182 CURVE SMOOTH",
"250 182 OFFCURVE",
"235 199 OFFCURVE",
"235 231 CURVE SMOOTH",
"235 236 LINE",
"12 226 LINE",
"12 221 LINE SMOOTH",
"12 83 OFFCURVE",
"118 -10 OFFCURVE",
"278 -10 CURVE SMOOTH"
);
},
{
closed = 1;
nodes = (
"349 -53 LINE",
"349 93 LINE",
"228 93 LINE",
"228 -53 LINE"
);
},
{
closed = 1;
nodes = (
"346 599 LINE",
"346 745 LINE",
"225 745 LINE",
"225 599 LINE"
);
}
);
width = 543;
},
{
layerId = "262880E7-CFE1-4BDA-902E-E24798F3240A";
paths = (
{
closed = 1;
nodes = (
"370 -5 OFFCURVE",
"433 50 OFFCURVE",
"433 149 CURVE SMOOTH",
"433 255 OFFCURVE",
"360 307 OFFCURVE",
"278 361 CURVE SMOOTH",
"197 414 OFFCURVE",
"133 457 OFFCURVE",
"133 550 CURVE SMOOTH",
"133 634 OFFCURVE",
"185 684 OFFCURVE",
"269 684 CURVE SMOOTH",
"353 684 OFFCURVE",
"405 635 OFFCURVE",
"405 548 CURVE SMOOTH",
"405 500 LINE",
"427 500 LINE",
"427 550 LINE SMOOTH",
"427 650 OFFCURVE",
"367 705 OFFCURVE",
"269 705 CURVE SMOOTH",
"171 705 OFFCURVE",
"111 649 OFFCURVE",
"111 553 CURVE SMOOTH",
"111 446 OFFCURVE",
"186 394 OFFCURVE",
"264 342 CURVE SMOOTH",
"341 291 OFFCURVE",
"411 248 OFFCURVE",
"411 152 CURVE SMOOTH",
"411 67 OFFCURVE",
"356 15 OFFCURVE",
"271 15 CURVE SMOOTH",
"186 15 OFFCURVE",
"139 68 OFFCURVE",
"139 154 CURVE SMOOTH",
"139 200 LINE",
"117 200 LINE",
"117 150 LINE SMOOTH",
"117 50 OFFCURVE",
"173 -5 OFFCURVE",
"272 -5 CURVE SMOOTH"
);
},
{
closed = 1;
nodes = (
"286 -88 LINE",
"286 2 LINE",
"264 2 LINE",
"264 -88 LINE"
);
},
{
closed = 1;
nodes = (
"279 702 LINE",
"279 792 LINE",
"257 792 LINE",
"257 702 LINE"
);
}
);
width = 544;
},
{
associatedMasterId = "4F25946F-63AC-42D6-8D55-01CF6A99025B";
layerId = "E869EA52-1DFA-43F8-82AD-AF9382669512";
name = "DemiBold{119,100}";
paths = (
{
closed = 1;
nodes = (
"387 -10 OFFCURVE",
"467 63 OFFCURVE",
"467 176 CURVE SMOOTH",
"467 286 OFFCURVE",
"394 347 OFFCURVE",
"295 395 CURVE SMOOTH",
"233 430 OFFCURVE",
"175 457 OFFCURVE",
"175 518 CURVE SMOOTH",
"175 565 OFFCURVE",
"204 598 OFFCURVE",
"256 598 CURVE SMOOTH",
"309 598 OFFCURVE",
"341 564 OFFCURVE",
"341 512 CURVE SMOOTH",
"341 481 LINE",
"465 486 LINE",
"465 512 LINE SMOOTH",
"465 632 OFFCURVE",
"380 710 OFFCURVE",
"253 710 CURVE SMOOTH",
"129 710 OFFCURVE",
"49 636 OFFCURVE",
"49 524 CURVE SMOOTH",
"49 415 OFFCURVE",
"123 353 OFFCURVE",
"221 306 CURVE SMOOTH",
"279 274 OFFCURVE",
"341 245 OFFCURVE",
"341 183 CURVE SMOOTH",
"341 137 OFFCURVE",
"311 103 OFFCURVE",
"259 103 CURVE SMOOTH",
"205 103 OFFCURVE",
"176 136 OFFCURVE",
"176 193 CURVE SMOOTH",
"176 219 LINE",
"46 214 LINE",
"46 188 LINE SMOOTH",
"46 68 OFFCURVE",
"128 -10 OFFCURVE",
"261 -10 CURVE SMOOTH"
);
},
{
closed = 1;
nodes = (
"306 -80 LINE",
"306 40 LINE",
"203 40 LINE",
"203 -80 LINE"
);
},
{
closed = 1;
nodes = (
"309 652 LINE",
"309 777 LINE",
"205 777 LINE",
"205 652 LINE"
);
}
);
width = 513;
}
);
unicode = 0024;
},
{
color = 1;
glyphname = at;
lastChange = "2016-10-18 11:13:33 +0000";
layers = (
{
layerId = "262880E7-CFE1-4BDA-902E-E24798F3240A";
paths = (
{
closed = 1;
nodes = (
"661 -71 OFFCURVE",
"823 92 OFFCURVE",
"823 290 CURVE SMOOTH",
"823 488 OFFCURVE",
"661 651 OFFCURVE",
"462 651 CURVE SMOOTH",
"263 651 OFFCURVE",
"101 488 OFFCURVE",
"101 290 CURVE SMOOTH",
"101 92 OFFCURVE",
"263 -71 OFFCURVE",
"462 -71 CURVE SMOOTH"
);
},
{
closed = 1;
nodes = (
"275 -50 OFFCURVE",
"123 102 OFFCURVE",
"123 290 CURVE SMOOTH",
"123 478 OFFCURVE",
"275 630 OFFCURVE",
"462 630 CURVE SMOOTH",
"649 630 OFFCURVE",
"801 478 OFFCURVE",
"801 290 CURVE SMOOTH",
"801 102 OFFCURVE",
"649 -50 OFFCURVE",
"462 -50 CURVE SMOOTH"
);
},
{
closed = 1;
nodes = (
"528 119 OFFCURVE",
"572 166 OFFCURVE",
"572 241 CURVE SMOOTH",
"572 383 LINE SMOOTH",
"572 458 OFFCURVE",
"528 505 OFFCURVE",
"456 505 CURVE SMOOTH",
"383 505 OFFCURVE",
"335 459 OFFCURVE",
"335 384 CURVE SMOOTH",
"335 240 LINE SMOOTH",
"335 165 OFFCURVE",
"383 119 OFFCURVE",
"456 119 CURVE SMOOTH"
);
},
{
closed = 1;
nodes = (
"391 135 OFFCURVE",
"352 175 OFFCURVE",
"352 240 CURVE SMOOTH",
"352 384 LINE SMOOTH",
"352 449 OFFCURVE",
"393 489 OFFCURVE",
"456 489 CURVE SMOOTH",
"520 489 OFFCURVE",
"561 449 OFFCURVE",
"561 384 CURVE SMOOTH",
"561 240 LINE SMOOTH",
"561 175 OFFCURVE",
"522 135 OFFCURVE",
"456 135 CURVE SMOOTH"
);
},
{
closed = 1;
nodes = (
"577 124 LINE",
"577 500 LINE",
"561 500 LINE",
"561 124 LINE"
);
}
);
width = 924;
},
{
layerId = "4F25946F-63AC-42D6-8D55-01CF6A99025B";
paths = (
{
closed = 1;
nodes = (
"566 -53 OFFCURVE",
"728 108 OFFCURVE",
"728 306 CURVE SMOOTH",
"728 504 OFFCURVE",
"566 665 OFFCURVE",
"368 665 CURVE SMOOTH",
"170 665 OFFCURVE",
"8 504 OFFCURVE",
"8 306 CURVE SMOOTH",
"8 108 OFFCURVE",
"170 -53 OFFCURVE",
"368 -53 CURVE SMOOTH"
);
},
{
closed = 1;
nodes = (
"233 69 OFFCURVE",
"133 170 OFFCURVE",
"133 306 CURVE SMOOTH",
"133 442 OFFCURVE",
"233 543 OFFCURVE",
"368 543 CURVE SMOOTH",
"503 543 OFFCURVE",
"603 442 OFFCURVE",
"603 306 CURVE SMOOTH",
"603 170 OFFCURVE",
"503 69 OFFCURVE",
"368 69 CURVE SMOOTH"
);
},
{
closed = 1;
nodes = (
"389 176 OFFCURVE",
"432 236 OFFCURVE",
"432 283 CURVE SMOOTH",
"432 290 LINE SMOOTH",
"432 295 OFFCURVE",
"424 419 OFFCURVE",
"332 419 CURVE",
"277 419 OFFCURVE",
"244 392 OFFCURVE",
"244 345 CURVE SMOOTH",
"244 255 LINE SMOOTH",
"244 213 OFFCURVE",
"269 176 OFFCURVE",
"325 176 CURVE SMOOTH"
);
},
{
closed = 1;
nodes = (
"350 258 OFFCURVE",
"342 265 OFFCURVE",
"342 277 CURVE SMOOTH",
"342 320 LINE SMOOTH",
"342 332 OFFCURVE",
"350 340 OFFCURVE",
"362 340 CURVE SMOOTH",
"374 340 OFFCURVE",
"383 332 OFFCURVE",
"383 320 CURVE SMOOTH",
"383 277 LINE SMOOTH",
"383 265 OFFCURVE",
"374 258 OFFCURVE",
"362 258 CURVE SMOOTH"
);
},
{
closed = 1;
nodes = (
"481 180 LINE",
"481 416 LINE",
"383 416 LINE",
"383 180 LINE"
);
}
);
width = 736;
}
);
unicode = 0040;
},
{
color = 1;
glyphname = copyright;
lastChange = "2016-10-18 11:13:33 +0000";
layers = (
{
layerId = "262880E7-CFE1-4BDA-902E-E24798F3240A";
paths = (
{
closed = 1;
nodes = (
"661 -71 OFFCURVE",
"823 92 OFFCURVE",
"823 290 CURVE SMOOTH",
"823 488 OFFCURVE",
"661 651 OFFCURVE",
"462 651 CURVE SMOOTH",
"263 651 OFFCURVE",
"101 488 OFFCURVE",
"101 290 CURVE SMOOTH",
"101 92 OFFCURVE",
"263 -71 OFFCURVE",
"462 -71 CURVE SMOOTH"
);
},
{
closed = 1;
nodes = (
"275 -50 OFFCURVE",
"123 102 OFFCURVE",
"123 290 CURVE SMOOTH",
"123 478 OFFCURVE",
"275 630 OFFCURVE",
"462 630 CURVE SMOOTH",
"649 630 OFFCURVE",
"801 478 OFFCURVE",
"801 290 CURVE SMOOTH",
"801 102 OFFCURVE",
"649 -50 OFFCURVE",
"462 -50 CURVE SMOOTH"
);
},
{
closed = 1;
nodes = (
"534 103 OFFCURVE",
"580 148 OFFCURVE",
"580 223 CURVE SMOOTH",
"580 225 LINE",
"564 225 LINE",
"564 223 LINE SMOOTH",
"564 158 OFFCURVE",
"525 118 OFFCURVE",
"459 118 CURVE SMOOTH",
"394 118 OFFCURVE",
"355 158 OFFCURVE",
"355 223 CURVE SMOOTH",
"355 367 LINE SMOOTH",
"355 433 OFFCURVE",
"396 472 OFFCURVE",
"459 472 CURVE SMOOTH",
"523 472 OFFCURVE",
"564 433 OFFCURVE",
"564 367 CURVE SMOOTH",
"564 366 LINE",
"580 366 LINE",
"580 367 LINE SMOOTH",
"580 442 OFFCURVE",
"534 487 OFFCURVE",
"459 487 CURVE SMOOTH",
"385 487 OFFCURVE",
"338 442 OFFCURVE",
"338 367 CURVE SMOOTH",
"338 223 LINE SMOOTH",
"338 148 OFFCURVE",
"385 103 OFFCURVE",
"459 103 CURVE SMOOTH"
);
}
);
width = 924;
},
{
layerId = "4F25946F-63AC-42D6-8D55-01CF6A99025B";
paths = (
{
closed = 1;
nodes = (
"566 -53 OFFCURVE",
"728 108 OFFCURVE",
"728 306 CURVE SMOOTH",
"728 504 OFFCURVE",
"566 665 OFFCURVE",
"368 665 CURVE SMOOTH",
"170 665 OFFCURVE",
"8 504 OFFCURVE",
"8 306 CURVE SMOOTH",
"8 108 OFFCURVE",
"170 -53 OFFCURVE",
"368 -53 CURVE SMOOTH"
);
},
{
closed = 1;
nodes = (
"233 69 OFFCURVE",
"133 170 OFFCURVE",
"133 306 CURVE SMOOTH",
"133 442 OFFCURVE",
"233 543 OFFCURVE",
"368 543 CURVE SMOOTH",
"503 543 OFFCURVE",
"603 442 OFFCURVE",
"603 306 CURVE SMOOTH",
"603 170 OFFCURVE",
"503 69 OFFCURVE",
"368 69 CURVE SMOOTH"
);
},
{
closed = 1;
nodes = (
"440 170 OFFCURVE",
"488 214 OFFCURVE",
"493 290 CURVE",
"493 291 LINE",
"388 291 LINE",
"388 277 LINE SMOOTH",
"388 265 OFFCURVE",
"379 257 OFFCURVE",
"366 257 CURVE SMOOTH",
"353 257 OFFCURVE",
"344 265 OFFCURVE",
"344 277 CURVE",
"344 323 LINE",
"344 336 OFFCURVE",
"353 344 OFFCURVE",
"366 344 CURVE SMOOTH",
"379 344 OFFCURVE",
"388 336 OFFCURVE",
"388 323 CURVE",
"388 313 LINE",
"493 313 LINE",
"493 314 LINE",
"492 386 OFFCURVE",
"445 428 OFFCURVE",
"365 428 CURVE SMOOTH",
"285 428 OFFCURVE",
"238 382 OFFCURVE",
"238 302 CURVE SMOOTH",
"238 298 LINE SMOOTH",
"238 217 OFFCURVE",
"285 170 OFFCURVE",
"365 170 CURVE SMOOTH"
);
}
);
width = 736;
}
);
unicode = 00A9;
},
{
color = 1;
glyphname = registered;
lastChange = "2016-10-18 11:13:33 +0000";
layers = (
{
layerId = "262880E7-CFE1-4BDA-902E-E24798F3240A";
paths = (
{
closed = 1;
nodes = (
"661 -72 OFFCURVE",
"823 91 OFFCURVE",
"823 289 CURVE SMOOTH",
"823 487 OFFCURVE",
"661 650 OFFCURVE",
"462 650 CURVE SMOOTH",
"263 650 OFFCURVE",
"101 487 OFFCURVE",
"101 289 CURVE SMOOTH",
"101 91 OFFCURVE",
"263 -72 OFFCURVE",
"462 -72 CURVE SMOOTH"
);
},
{
closed = 1;
nodes = (
"275 -51 OFFCURVE",
"123 101 OFFCURVE",
"123 289 CURVE SMOOTH",
"123 477 OFFCURVE",
"275 629 OFFCURVE",
"462 629 CURVE SMOOTH",
"649 629 OFFCURVE",
"801 477 OFFCURVE",
"801 289 CURVE SMOOTH",
"801 101 OFFCURVE",
"649 -51 OFFCURVE",
"462 -51 CURVE SMOOTH"
);
},
{
closed = 1;
nodes = (
"401 105 LINE",
"401 489 LINE",
"473 489 LINE SMOOTH",
"529 489 OFFCURVE",
"564 453 OFFCURVE",
"564 394 CURVE SMOOTH",
"564 335 OFFCURVE",
"529 299 OFFCURVE",
"473 299 CURVE SMOOTH",
"398 299 LINE",
"398 287 LINE",
"473 287 LINE SMOOTH",
"536 287 OFFCURVE",
"576 328 OFFCURVE",
"576 394 CURVE SMOOTH",
"576 460 OFFCURVE",
"536 500 OFFCURVE",
"473 500 CURVE SMOOTH",
"388 500 LINE",
"388 105 LINE"
);
},
{
closed = 1;
nodes = (
"550 103 LINE",
"485 295 LINE",
"474 291 LINE",
"537 103 LINE"
);
}
